<?xml version="1.0" encoding="UTF-8" standalone="no"?>
<svg width="444px" height="157px" viewBox="0 0 444 157" version="1.1" xmlns="http://www.w3.org/2000/svg" xmlns:xlink="http://www.w3.org/1999/xlink">
    <!-- Generator: Sketch 47.1 (45422) - http://www.bohemiancoding.com/sketch -->
    <title>Group 13</title>
    <desc>Created with Sketch.</desc>
    <defs></defs>
    <g id="Page-1" stroke="none" stroke-width="1" fill="none" fill-rule="evenodd">
        <g id="Group-13">
            <polygon id="Fill-1" fill="#FFFFFF" points="341 28.26 341.133 28.26 341.133 28 341 28"></polygon>
            <polygon id="Fill-2" fill="#FFFFFF" points="141 60.985 149.133 60.985 149.133 1 141 1"></polygon>
            <polygon id="Stroke-3" stroke="#FFFFFF" stroke-width="0.64" points="141 60.985 149.133 60.985 149.133 1 141 1"></polygon>
            <path d="M161,20.017 L168.626,20.017 L168.626,26.202 L168.795,26.202 C170.743,21.966 175.827,19 182.012,19 C189.806,19 196.586,23.66 196.586,34.336 L196.586,60.177 L188.96,60.177 L188.96,36.453 C188.96,28.913 184.639,26.117 179.809,26.117 C173.455,26.117 168.626,30.184 168.626,39.504 L168.626,60.177 L161,60.177 L161,20.017" id="Fill-5" fill="#FFFFFF"></path>
            <path d="M161,20.017 L168.626,20.017 L168.626,26.202 L168.795,26.202 C170.743,21.966 175.827,19 182.012,19 C189.806,19 196.586,23.66 196.586,34.336 L196.586,60.177 L188.96,60.177 L188.96,36.453 C188.96,28.913 184.639,26.117 179.809,26.117 C173.455,26.117 168.626,30.184 168.626,39.504 L168.626,60.177 L161,60.177 L161,20.017 Z" id="Stroke-6" stroke="#FFFFFF" stroke-width="0.64"></path>
            <path d="M227.367,26.877 L216.437,26.877 L216.437,45.093 C216.437,49.583 216.437,54.328 222.199,54.328 C223.978,54.328 226.096,54.074 227.621,53.141 L227.621,60.09 C225.842,61.105 222.284,61.444 220.758,61.444 C208.981,61.444 208.812,54.243 208.812,47.804 L208.812,26.877 L200,26.877 L200,20.268 L208.812,20.268 L208.812,9 L216.437,9 L216.437,20.268 L227.367,20.268 L227.367,26.877" id="Fill-7" fill="#FFFFFF"></path>
            <path d="M227.367,26.877 L216.437,26.877 L216.437,45.093 C216.437,49.583 216.437,54.328 222.199,54.328 C223.978,54.328 226.096,54.074 227.621,53.141 L227.621,60.09 C225.842,61.105 222.284,61.444 220.758,61.444 C208.981,61.444 208.812,54.243 208.812,47.804 L208.812,26.877 L200,26.877 L200,20.268 L208.812,20.268 L208.812,9 L216.437,9 L216.437,20.268 L227.367,20.268 L227.367,26.877 Z" id="Stroke-8" stroke="#FFFFFF" stroke-width="0.64"></path>
            <path d="M265.196,36.792 C265.025,30.099 261.298,25.1 253.588,25.1 C246.048,25.1 241.133,31.455 241.133,36.792 L265.196,36.792 Z M241.133,42.893 C241.133,49.925 247.657,54.585 254.69,54.585 C259.349,54.585 262.737,52.213 265.703,48.569 L271.464,52.975 C267.229,58.483 261.382,61.193 253.672,61.193 C240.964,61.193 233,52.044 233,40.097 C233,28.066 241.726,19 253.757,19 C267.906,19 273.329,29.845 273.329,40.182 L273.329,42.893 L241.133,42.893 L241.133,42.893 Z" id="Fill-9" fill="#FFFFFF"></path>
            <path d="M265.196,36.792 C265.025,30.099 261.298,25.1 253.588,25.1 C246.048,25.1 241.133,31.455 241.133,36.792 L265.196,36.792 Z M241.133,42.893 C241.133,49.925 247.657,54.585 254.69,54.585 C259.349,54.585 262.737,52.213 265.703,48.569 L271.464,52.975 C267.229,58.483 261.382,61.193 253.672,61.193 C240.964,61.193 233,52.044 233,40.097 C233,28.066 241.726,19 253.757,19 C267.906,19 273.329,29.845 273.329,40.182 L273.329,42.893 L241.133,42.893 Z" id="Stroke-10" stroke="#FFFFFF" stroke-width="0.64"></path>
            <path d="M281,20.017 L288.626,20.017 L288.626,26.202 L288.795,26.202 C290.744,21.966 295.828,19 300.826,19 C302.013,19 303.2,19.17 304.215,19.509 L303.877,27.727 C302.606,27.388 301.335,27.134 300.149,27.134 C292.694,27.134 288.626,31.2 288.626,40.012 L288.626,60.177 L281,60.177 L281,20.017" id="Fill-11" fill="#FFFFFF"></path>
            <path d="M281,20.017 L288.626,20.017 L288.626,26.202 L288.795,26.202 C290.744,21.966 295.828,19 300.826,19 C302.013,19 303.2,19.17 304.215,19.509 L303.877,27.727 C302.606,27.388 301.335,27.134 300.149,27.134 C292.694,27.134 288.626,31.2 288.626,40.012 L288.626,60.177 L281,60.177 L281,20.017 Z" id="Stroke-12" stroke="#FFFFFF" stroke-width="0.64"></path>
            <path d="M309,20.017 L316.625,20.017 L316.625,26.202 L316.795,26.202 C318.744,21.966 323.827,19 330.012,19 C337.807,19 344.586,23.66 344.586,34.336 L344.586,60.177 L336.96,60.177 L336.96,36.453 C336.96,28.913 332.639,26.117 327.809,26.117 C321.455,26.117 316.625,30.184 316.625,39.504 L316.625,60.177 L309,60.177 L309,20.017" id="Fill-13" fill="#FFFFFF"></path>
            <path d="M309,20.017 L316.625,20.017 L316.625,26.202 L316.795,26.202 C318.744,21.966 323.827,19 330.012,19 C337.807,19 344.586,23.66 344.586,34.336 L344.586,60.177 L336.96,60.177 L336.96,36.453 C336.96,28.913 332.639,26.117 327.809,26.117 C321.455,26.117 316.625,30.184 316.625,39.504 L316.625,60.177 L309,60.177 L309,20.017 Z" id="Stroke-14" stroke="#FFFFFF" stroke-width="0.64"></path>
            <path d="M384.197,36.792 C384.027,30.099 380.298,25.1 372.589,25.1 C365.048,25.1 360.134,31.455 360.134,36.792 L384.197,36.792 Z M360.134,42.893 C360.134,49.925 366.658,54.585 373.691,54.585 C378.35,54.585 381.738,52.213 384.704,48.569 L390.465,52.975 C386.23,58.483 380.382,61.193 372.672,61.193 C359.964,61.193 352,52.044 352,40.097 C352,28.066 360.726,19 372.757,19 C386.907,19 392.329,29.845 392.329,40.182 L392.329,42.893 L360.134,42.893 L360.134,42.893 Z" id="Fill-15" fill="#FFFFFF"></path>
            <path d="M384.197,36.792 C384.027,30.099 380.298,25.1 372.589,25.1 C365.048,25.1 360.134,31.455 360.134,36.792 L384.197,36.792 Z M360.134,42.893 C360.134,49.925 366.658,54.585 373.691,54.585 C378.35,54.585 381.738,52.213 384.704,48.569 L390.465,52.975 C386.23,58.483 380.382,61.193 372.672,61.193 C359.964,61.193 352,52.044 352,40.097 C352,28.066 360.726,19 372.757,19 C386.907,19 392.329,29.845 392.329,40.182 L392.329,42.893 L360.134,42.893 Z" id="Stroke-16" stroke="#FFFFFF" stroke-width="0.64"></path>
            <path d="M421.367,26.877 L410.437,26.877 L410.437,45.093 C410.437,49.583 410.437,54.328 416.199,54.328 C417.978,54.328 420.096,54.074 421.621,53.141 L421.621,60.09 C419.842,61.105 416.283,61.444 414.758,61.444 C402.98,61.444 402.812,54.243 402.812,47.804 L402.812,26.877 L394,26.877 L394,20.268 L402.812,20.268 L402.812,9 L410.437,9 L410.437,20.268 L421.367,20.268 L421.367,26.877" id="Fill-17" fill="#FFFFFF"></path>
            <path d="M421.367,26.877 L410.437,26.877 L410.437,45.093 C410.437,49.583 410.437,54.328 416.199,54.328 C417.978,54.328 420.096,54.074 421.621,53.141 L421.621,60.09 C419.842,61.105 416.283,61.444 414.758,61.444 C402.98,61.444 402.812,54.243 402.812,47.804 L402.812,26.877 L394,26.877 L394,20.268 L402.812,20.268 L402.812,9 L410.437,9 L410.437,20.268 L421.367,20.268 L421.367,26.877 Z" id="Stroke-18" stroke="#FFFFFF" stroke-width="0.64"></path>
            <path d="M149.133,102.434 L159.809,102.434 C166.248,102.434 172.687,100.909 172.687,92.776 C172.687,84.641 166.248,83.116 159.809,83.116 L149.133,83.116 L149.133,102.434 Z M141,76 L162.096,76 C177.432,76 181.329,85.235 181.329,92.776 C181.329,100.401 175.652,107.604 166.587,108.62 L183.617,135.985 L173.449,135.985 L158.199,109.551 L149.133,109.551 L149.133,135.985 L141,135.985 L141,76 L141,76 Z" id="Fill-19" fill="#FFFFFF"></path>
            <path d="M149.133,102.434 L159.809,102.434 C166.248,102.434 172.687,100.909 172.687,92.776 C172.687,84.641 166.248,83.116 159.809,83.116 L149.133,83.116 L149.133,102.434 Z M141,76 L162.096,76 C177.432,76 181.329,85.235 181.329,92.776 C181.329,100.401 175.652,107.604 166.587,108.62 L183.617,135.985 L173.449,135.985 L158.199,109.551 L149.133,109.551 L149.133,135.985 L141,135.985 L141,76 Z" id="Stroke-20" stroke="#FFFFFF" stroke-width="0.64"></path>
            <path d="M217.195,112.793 C217.025,106.1 213.297,101.1 205.588,101.1 C198.048,101.1 193.132,107.453 193.132,112.793 L217.195,112.793 Z M193.132,118.893 C193.132,125.924 199.656,130.584 206.689,130.584 C211.349,130.584 214.737,128.213 217.703,124.568 L223.464,128.975 C219.228,134.483 213.382,137.193 205.672,137.193 C192.964,137.193 185,128.043 185,116.098 C185,104.066 193.725,95 205.757,95 C219.906,95 225.328,105.846 225.328,116.182 L225.328,118.893 L193.132,118.893 L193.132,118.893 Z" id="Fill-21" fill="#FFFFFF"></path>
            <path d="M217.195,112.793 C217.025,106.1 213.297,101.1 205.588,101.1 C198.048,101.1 193.132,107.453 193.132,112.793 L217.195,112.793 Z M193.132,118.893 C193.132,125.924 199.656,130.584 206.689,130.584 C211.349,130.584 214.737,128.213 217.703,124.568 L223.464,128.975 C219.228,134.483 213.382,137.193 205.672,137.193 C192.964,137.193 185,128.043 185,116.098 C185,104.066 193.725,95 205.757,95 C219.906,95 225.328,105.846 225.328,116.182 L225.328,118.893 L193.132,118.893 Z" id="Stroke-22" stroke="#FFFFFF" stroke-width="0.64"></path>
            <path d="M254.367,102.877 L243.437,102.877 L243.437,121.092 C243.437,125.584 243.437,130.328 249.199,130.328 C250.977,130.328 253.095,130.074 254.621,129.143 L254.621,136.09 C252.842,137.106 249.283,137.445 247.758,137.445 C235.98,137.445 235.812,130.244 235.812,123.805 L235.812,102.877 L227,102.877 L227,96.268 L235.812,96.268 L235.812,85 L243.437,85 L243.437,96.268 L254.367,96.268 L254.367,102.877" id="Fill-23" fill="#FFFFFF"></path>
            <path d="M254.367,102.877 L243.437,102.877 L243.437,121.092 C243.437,125.584 243.437,130.328 249.199,130.328 C250.977,130.328 253.095,130.074 254.621,129.143 L254.621,136.09 C252.842,137.106 249.283,137.445 247.758,137.445 C235.98,137.445 235.812,130.244 235.812,123.805 L235.812,102.877 L227,102.877 L227,96.268 L235.812,96.268 L235.812,85 L243.437,85 L243.437,96.268 L254.367,96.268 L254.367,102.877 Z" id="Stroke-24" stroke="#FFFFFF" stroke-width="0.64"></path>
            <path d="M282.639,116.859 C275.438,116.859 266.625,118.131 266.625,124.568 C266.625,129.145 270.016,131.094 275.268,131.094 C283.74,131.094 286.706,124.822 286.706,119.4 L286.706,116.859 L282.639,116.859 Z M261.119,100.93 C265.356,96.949 271.455,95 277.048,95 C288.909,95 293.822,101.44 293.822,108.387 L293.822,128.891 C293.822,131.686 293.908,134.059 294.162,136.176 L287.384,136.176 C287.214,134.143 287.13,132.109 287.13,130.076 L286.96,130.076 C283.571,135.244 278.996,137.193 272.897,137.193 C265.441,137.193 259,132.957 259,125.162 C259,114.826 268.914,111.268 281.113,111.268 L286.706,111.268 L286.706,109.572 C286.706,105.422 283.656,101.1 277.132,101.1 C271.285,101.1 268.49,103.557 265.695,105.674 L261.119,100.93 L261.119,100.93 Z" id="Fill-25" fill="#FFFFFF"></path>
            <path d="M282.639,116.859 C275.438,116.859 266.625,118.131 266.625,124.568 C266.625,129.145 270.016,131.094 275.268,131.094 C283.74,131.094 286.706,124.822 286.706,119.4 L286.706,116.859 L282.639,116.859 Z M261.119,100.93 C265.356,96.949 271.455,95 277.048,95 C288.909,95 293.822,101.44 293.822,108.387 L293.822,128.891 C293.822,131.686 293.908,134.059 294.162,136.176 L287.384,136.176 C287.214,134.143 287.13,132.109 287.13,130.076 L286.96,130.076 C283.571,135.244 278.996,137.193 272.897,137.193 C265.441,137.193 259,132.957 259,125.162 C259,114.826 268.914,111.268 281.113,111.268 L286.706,111.268 L286.706,109.572 C286.706,105.422 283.656,101.1 277.132,101.1 C271.285,101.1 268.49,103.557 265.695,105.674 L261.119,100.93 Z" id="Stroke-26" stroke="#FFFFFF" stroke-width="0.64"></path>
            <path d="M303.779,136.155 L311.405,136.155 L311.405,95.995 L303.779,95.995 L303.779,136.155 Z M307.592,76 C310.641,76 313.184,78.542 313.184,81.592 C313.184,84.643 310.641,87.184 307.592,87.184 C304.541,87.184 302,84.643 302,81.592 C302,78.542 304.541,76 307.592,76 L307.592,76 Z" id="Fill-27" fill="#FFFFFF"></path>
            <path d="M303.779,136.155 L311.405,136.155 L311.405,95.995 L303.779,95.995 L303.779,136.155 Z M307.592,76 C310.641,76 313.184,78.542 313.184,81.592 C313.184,84.643 310.641,87.184 307.592,87.184 C304.541,87.184 302,84.643 302,81.592 C302,78.542 304.541,76 307.592,76 Z" id="Stroke-28" stroke="#FFFFFF" stroke-width="0.64"></path>
            <polygon id="Fill-29" fill="#FFFFFF" points="322 136.052 329.626 136.052 329.626 72 322 72"></polygon>
            <polygon id="Stroke-30" stroke="#FFFFFF" stroke-width="0.64" points="322 136.052 329.626 136.052 329.626 72 322 72"></polygon>
            <path d="M340.779,136.155 L348.404,136.155 L348.404,95.995 L340.779,95.995 L340.779,136.155 Z M344.592,76 C347.642,76 350.183,78.542 350.183,81.592 C350.183,84.643 347.642,87.184 344.592,87.184 C341.542,87.184 339,84.643 339,81.592 C339,78.542 341.542,76 344.592,76 L344.592,76 Z" id="Fill-31" fill="#FFFFFF"></path>
            <path d="M340.779,136.155 L348.404,136.155 L348.404,95.995 L340.779,95.995 L340.779,136.155 Z M344.592,76 C347.642,76 350.183,78.542 350.183,81.592 C350.183,84.643 347.642,87.184 344.592,87.184 C341.542,87.184 339,84.643 339,81.592 C339,78.542 341.542,76 344.592,76 Z" id="Stroke-32" stroke="#FFFFFF" stroke-width="0.64"></path>
            <path d="M359,96.016 L366.625,96.016 L366.625,102.201 L366.795,102.201 C368.744,97.965 373.827,95 380.012,95 C387.807,95 394.586,99.66 394.586,110.334 L394.586,136.176 L386.96,136.176 L386.96,112.453 C386.96,104.912 382.639,102.117 377.809,102.117 C371.455,102.117 366.625,106.184 366.625,115.504 L366.625,136.176 L359,136.176 L359,96.016" id="Fill-33" fill="#FFFFFF"></path>
            <path d="M359,96.016 L366.625,96.016 L366.625,102.201 L366.795,102.201 C368.744,97.965 373.827,95 380.012,95 C387.807,95 394.586,99.66 394.586,110.334 L394.586,136.176 L386.96,136.176 L386.96,112.453 C386.96,104.912 382.639,102.117 377.809,102.117 C371.455,102.117 366.625,106.184 366.625,115.504 L366.625,136.176 L359,136.176 L359,96.016 Z" id="Stroke-34" stroke="#FFFFFF" stroke-width="0.64"></path>
            <path d="M409.133587,116.098 C409.133587,124.231 414.217587,129.568 422.350587,129.568 C430.485587,129.568 435.569587,124.231 435.569587,116.098 C435.569587,107.963 430.485587,102.117 422.350587,102.117 C414.217587,102.117 409.133587,107.963 409.133587,116.098 Z M443.194587,135.838 C443.194587,147.953 434.381587,156.512 421.249587,156.512 C413.626587,156.512 407.270587,154.563 401.594587,149.309 L406.762587,142.869 C410.745587,147.106 415.234587,149.393 421.081587,149.393 C432.434587,149.393 435.569587,142.277 435.569587,135.498 L435.569587,129.568 L435.315587,129.568 C432.434587,134.397 426.926587,136.686 421.418587,136.686 C409.643587,136.686 400.917587,127.789 401.000587,116.098 C401.000587,104.234 408.963587,95 421.418587,95 C426.842587,95 432.434587,97.457 435.399587,101.777 L435.569587,101.777 L435.569587,96.016 L443.194587,96.016 L443.194587,135.838 L443.194587,135.838 Z" id="Fill-35" fill="#FFFFFF"></path>
            <path d="M409.133587,116.098 C409.133587,124.231 414.217587,129.568 422.350587,129.568 C430.485587,129.568 435.569587,124.231 435.569587,116.098 C435.569587,107.963 430.485587,102.117 422.350587,102.117 C414.217587,102.117 409.133587,107.963 409.133587,116.098 Z M443.194587,135.838 C443.194587,147.953 434.381587,156.512 421.249587,156.512 C413.626587,156.512 407.270587,154.563 401.594587,149.309 L406.762587,142.869 C410.745587,147.106 415.234587,149.393 421.081587,149.393 C432.434587,149.393 435.569587,142.277 435.569587,135.498 L435.569587,129.568 L435.315587,129.568 C432.434587,134.397 426.926587,136.686 421.418587,136.686 C409.643587,136.686 400.917587,127.789 401.000587,116.098 C401.000587,104.234 408.963587,95 421.418587,95 C426.842587,95 432.434587,97.457 435.399587,101.777 L435.569587,101.777 L435.569587,96.016 L443.194587,96.016 L443.194587,135.838 Z" id="Stroke-36" stroke="#FFFFFF" stroke-width="0.64"></path>
            <polygon id="Path-5" fill="#A2C835" points="87.5665283 71.0926514 47 0 107.380827 0 124.615479 43.3450928"></polygon>
            <polygon id="Path-2" fill="#E7404C" points="0 0 0.0202636719 135.961304 46.956543 101.07373 47 0"></polygon>
            <polygon id="Path-3" fill="#874E95" points="46.9660645 101 0 135.909424 46.9945068 135.880127"></polygon>
            <polygon id="Path-4" fill="#63AED7" points="47 101.013428 47.0223999 135.91095 124.649475 135.839478 87.5627441 71"></polygon>
        </g>
    </g>
</svg>