<?xml version="1.0" standalone="no"?><!-- Generator: Gravit.io --><svg xmlns="http://www.w3.org/2000/svg" xmlns:xlink="http://www.w3.org/1999/xlink" style="isolation:isolate" viewBox="0 0 268.16 44.3" width="268.16" height="44.3"><defs><clipPath id="_clipPath_tJn7mn8Vf9n8ZFFdO7Qi7VfLuPWRy0bH"><rect width="268.16" height="44.3"/></clipPath></defs><g clip-path="url(#_clipPath_tJn7mn8Vf9n8ZFFdO7Qi7VfLuPWRy0bH)"><rect x="107.1" y="1.72" width="12.16" height="7.52" transform="matrix(1,0,0,1,0,0)" fill="rgb(98,169,160)"/><path d=" M 94.53 36.65 C 93.649 37.138 92.656 37.386 91.65 37.37 C 90.791 37.449 89.942 37.135 89.341 36.515 C 88.741 35.895 88.453 35.036 88.56 34.18 C 88.56 31.6 89.79 29.95 94.56 29.18 L 94.53 36.65 Z  M 40.53 26.45 C 40.53 20.06 41.35 18.31 43.41 18.31 C 45.47 18.31 46.3 20 46.3 26.45 L 40.53 26.45 Z  M 24 25.42 C 26.962 24.073 29.493 21.93 31.31 19.23 C 30.315 21.722 29.826 24.387 29.87 27.07 L 29.87 28.71 C 29.805 31.556 30.351 34.383 31.47 37 L 24 25.42 Z  M 15.14 18.93 L 12.2 18.93 L 12.2 9.34 L 15.09 9.34 C 18.28 9.34 20.09 10.89 20.09 13.88 C 20.2 17.07 18.45 18.88 15.09 18.88 M 107.41 40 C 105.35 39.69 104.94 39.28 104.94 37.22 L 104.94 22.64 C 104.94 15.11 101.54 12.12 93.4 12.12 C 88.66 12.12 84.64 13.46 79.9 16.04 L 82.68 22.74 C 86.8 20.57 89.38 19.85 91.34 19.85 C 92.178 19.755 93.016 20.033 93.63 20.611 C 94.244 21.189 94.574 22.008 94.53 22.85 L 94.53 25.22 C 84.64 25.84 79.69 28.52 78.66 33.57 C 76.859 34.465 74.897 34.989 72.89 35.11 C 72.228 35.167 71.575 34.921 71.115 34.441 C 70.655 33.962 70.436 33.299 70.52 32.64 L 70.52 20.06 L 78.15 20.06 L 78.15 12.33 L 70.52 12.33 L 70.52 0.27 L 59.09 1.72 L 59.09 12.33 L 52.9 12.43 L 52.9 15.11 C 50.335 12.722 46.921 11.462 43.42 11.61 C 38.48 11.61 34.42 13.67 32.19 17.48 C 32.698 16.275 32.943 14.977 32.91 13.67 C 32.91 4.5 26.52 0.27 16.84 0.27 L 0 0.27 L 0 43.66 L 12.82 43.66 L 12.82 27.38 L 14 27.38 L 22 43.66 L 35.9 43.66 L 33.32 39.74 C 35.8 42.52 39.51 44.07 44.25 44.07 C 48.849 44.2 53.41 43.208 57.54 41.18 L 55.07 34 C 52.306 35.359 49.279 36.096 46.2 36.16 C 43.11 36.16 40.95 35.44 40.54 30.81 L 57 30.81 L 57 27.07 C 57.018 24.729 56.681 22.4 56 20.16 L 59.1 20.16 L 59.1 35.62 C 59.1 41.39 61.98 44.27 68.47 44.27 C 72.031 44.3 75.552 43.524 78.77 42 L 78.77 38.4 C 79.657 41.797 82.782 44.123 86.29 44 C 89.59 44 91.96 42.66 94.64 39.87 L 94.94 39.87 C 96.08 42.52 99.69 44 107.41 44 L 118.85 44 L 118.85 12.23 L 107.21 12.23 L 107.21 40 L 107.41 40 Z " fill="rgb(98,169,160)"/><path d=" M 233.33 34 C 230.527 35.392 227.458 36.166 224.33 36.27 C 221.13 36.27 219.07 35.55 218.66 30.91 L 235.56 30.91 L 235.56 40.7 L 233.33 34 Z  M 221.59 18.31 C 223.65 18.31 224.47 19.96 224.47 26.45 L 218.6 26.45 C 218.7 20.06 219.42 18.31 221.6 18.31 M 191.7 26.45 C 191.7 20.06 192.53 18.31 194.59 18.31 C 196.65 18.31 197.47 19.96 197.47 26.45 L 191.7 26.45 Z  M 235.6 25.11 C 234.88 16.56 229.6 11.71 221.6 11.71 C 214.28 11.71 209.23 16.04 208.1 23.71 C 207.1 16.08 202.22 11.71 194.6 11.71 C 188.6 11.71 184.19 14.6 182.13 19.85 L 186.13 0.27 L 174.39 0.27 L 170.68 27.89 L 170.48 27.89 L 165.63 0.17 L 153.89 0.17 L 149 27.89 L 148.8 27.89 L 145.09 0.17 L 133.09 0.17 L 121.55 1.51 L 121.55 44 L 133.19 44 L 133.19 0.69 L 142.19 44.27 L 154.3 44.27 L 159.45 17 L 159.66 17 L 164.81 44.3 L 177 44.3 L 180.91 25.55 L 180.91 28.74 C 180.91 38.53 186.17 44.1 195.55 44.1 C 200.182 44.24 204.778 43.248 208.94 41.21 L 206.44 34 C 203.637 35.392 200.568 36.166 197.44 36.27 C 194.25 36.27 192.19 35.55 191.78 30.91 L 208 30.91 C 208.73 39.36 213.88 44.2 222.53 44.2 C 227.084 44.325 231.604 43.372 235.72 41.42 L 235.72 43.79 L 247.47 43.79 L 247.47 0 L 235.7 1.41 L 235.7 25.11 L 235.6 25.11 Z " fill="rgb(98,169,160)"/><path d=" M 255.28 12.23 L 247.76 27.68 L 247.76 27.89 L 255.69 43.66 L 268.16 43.66 L 259.3 27.58 L 267.44 12.23 L 255.28 12.23 L 255.28 12.23 Z " fill="rgb(98,169,160)"/></g></svg>