<?xml version="1.0" standalone="no"?><!-- Generator: Gravit.io --><svg xmlns="http://www.w3.org/2000/svg" xmlns:xlink="http://www.w3.org/1999/xlink" style="isolation:isolate" viewBox="0 0 1034 515" width="1034" height="515"><g><g><path d=" M 47.704 96.932 L 66.076 96.932 L 66.076 67.497 C 64.766 67.306 63.537 66.852 62.391 66.186 C 60.749 65.234 59.29 63.848 57.998 62.183 C 54.63 57.842 53.791 54.122 52.847 49.929 C 52.459 48.21 52.053 46.407 51.426 44.438 C 48.115 44.006 45.473 42.424 43.502 40.292 C 40.68 37.24 39.269 33.042 39.269 29.521 L 39.269 28.104 L 40.685 28.104 L 94.302 28.104 L 95.719 28.104 L 95.719 29.521 C 95.719 33.042 94.308 37.24 91.485 40.292 C 89.515 42.424 86.872 44.006 83.561 44.438 C 82.935 46.407 82.528 48.21 82.141 49.929 C 81.196 54.122 80.357 57.842 76.99 62.183 C 75.697 63.848 74.238 65.234 72.598 66.186 C 71.45 66.852 70.223 67.306 68.911 67.497 L 68.911 96.932 L 87.283 96.932 L 87.283 99.767 L 47.704 99.767 L 47.704 96.932 L 47.704 96.932 Z  M 54.42 44.556 C 54.91 46.234 55.264 47.803 55.603 49.309 C 56.475 53.175 57.249 56.607 60.234 60.455 C 61.31 61.841 62.5 62.98 63.808 63.739 C 64.934 64.393 66.16 64.765 67.494 64.765 C 68.827 64.765 70.055 64.393 71.18 63.739 C 72.487 62.98 73.678 61.841 74.753 60.455 C 77.739 56.607 78.513 53.175 79.384 49.309 C 79.724 47.803 80.077 46.234 80.567 44.556 L 67.494 44.556 L 54.42 44.556 L 54.42 44.556 Z  M 67.494 41.722 L 81.714 41.722 C 85.025 41.722 87.592 40.35 89.415 38.377 C 91.36 36.273 92.488 33.495 92.797 30.939 L 42.19 30.939 C 42.5 33.495 43.627 36.273 45.572 38.377 C 47.396 40.35 49.962 41.722 53.273 41.722 L 67.494 41.722 Z " fill-rule="evenodd" fill="rgb(255,255,255)" fill-opacity="0.25"/><path d=" M 179.781 33.6 L 215.633 33.6 C 215.741 30.898 215.773 28.069 215.715 25.095 L 197.707 25.095 L 179.699 25.095 C 179.641 28.069 179.673 30.898 179.781 33.6 L 179.781 33.6 Z  M 215.489 36.435 L 179.925 36.435 C 180.828 51.148 183.99 62.008 186.927 72.085 C 188.17 76.351 189.373 80.479 190.339 84.632 C 190.741 86.2 191.734 87.065 193.183 87.712 C 194.494 88.298 196.092 88.591 197.707 88.591 C 199.322 88.591 200.92 88.298 202.231 87.712 C 203.66 87.074 204.69 86.19 205.075 84.632 C 206.041 80.479 207.244 76.351 208.487 72.085 C 211.423 62.008 214.586 51.148 215.489 36.435 L 215.489 36.435 Z  M 187.553 85.149 C 186.584 81.003 185.418 77.002 184.214 72.871 C 180.433 59.892 176.278 45.636 176.908 23.639 L 176.948 22.261 L 178.32 22.261 L 197.707 22.261 L 217.094 22.261 L 218.466 22.261 L 218.505 23.639 C 219.135 45.636 214.981 59.892 211.2 72.871 C 209.996 77.002 208.83 81.003 207.861 85.149 C 208.061 89.952 210.775 92.062 213.276 94.006 C 215.952 96.086 218.43 98.012 218.492 102.255 L 218.514 103.689 L 217.08 103.689 L 197.707 103.689 L 178.334 103.689 L 176.901 103.689 L 176.922 102.255 C 176.984 98.012 179.462 96.086 182.138 94.006 C 184.639 92.062 187.352 89.952 187.553 85.149 L 187.553 85.149 Z  M 205.629 88.898 C 204.978 89.455 204.218 89.919 203.383 90.293 C 201.692 91.048 199.69 91.426 197.707 91.426 C 195.725 91.426 193.723 91.048 192.031 90.293 C 191.196 89.919 190.435 89.455 189.785 88.898 C 188.671 92.515 186.197 94.438 183.876 96.242 C 182.138 97.594 180.505 98.864 179.947 100.854 L 197.707 100.854 L 215.467 100.854 C 214.909 98.864 213.276 97.594 211.538 96.242 C 209.217 94.438 206.742 92.515 205.629 88.898 Z " fill-rule="evenodd" fill="rgb(255,255,255)" fill-opacity="0.25"/><path d=" M 303.105 47.771 L 352.693 47.771 C 354.24 44.569 355.586 41.599 356.519 39.266 L 299.279 39.266 C 300.212 41.599 301.558 44.569 303.105 47.771 L 303.105 47.771 Z  M 351.301 50.605 L 304.498 50.605 C 304.681 50.971 304.865 51.339 305.051 51.707 C 308.002 57.558 311.305 63.588 313.809 67.579 C 315.009 69.499 316.786 71.243 318.685 72.47 C 321.45 74.256 324.673 75.149 327.899 75.149 C 331.125 75.149 334.348 74.256 337.113 72.47 C 339.082 71.198 340.717 69.545 341.989 67.579 C 344.493 63.588 347.796 57.558 350.748 51.707 C 350.934 51.339 351.118 50.971 351.301 50.605 L 351.301 50.605 Z  M 311.424 69.095 C 308.867 65.022 305.513 58.9 302.526 52.98 C 299.64 47.26 297.083 41.699 295.9 38.313 L 295.242 36.431 L 297.234 36.431 L 358.563 36.431 L 360.556 36.431 L 359.898 38.313 C 358.715 41.699 356.158 47.26 353.272 52.98 C 350.286 58.9 346.931 65.022 344.375 69.095 C 344.008 69.682 343.566 70.279 343.13 70.816 C 342.897 73.112 343.037 75.508 344.116 77.59 C 345.749 80.273 348.158 83.236 348.178 86.504 C 348.2 90.435 345.24 94.054 341.146 94.054 L 327.899 94.054 L 314.651 94.054 C 310.558 94.054 307.597 90.437 307.621 86.504 C 307.641 83.236 310.05 80.273 311.683 77.59 C 312.761 75.509 312.9 73.111 312.668 70.816 C 312.256 70.307 311.754 69.656 311.424 69.095 L 311.424 69.095 Z  M 340.234 73.701 C 340.342 75.432 340.797 77.527 341.675 79.006 C 342.899 81.026 345.341 84.121 345.354 86.515 C 345.368 88.892 343.672 91.219 341.146 91.219 L 327.899 91.219 L 314.651 91.219 C 312.127 91.219 310.431 88.892 310.444 86.515 C 310.457 84.18 312.92 80.991 314.124 79.006 C 315.007 77.46 315.453 75.481 315.564 73.701 C 316.078 74.114 316.61 74.497 317.157 74.85 C 320.391 76.94 324.147 77.984 327.899 77.984 C 331.65 77.984 335.407 76.94 338.642 74.85 C 339.188 74.497 339.721 74.114 340.234 73.701 Z " fill-rule="evenodd" fill="rgb(255,255,255)" fill-opacity="0.25"/><path d=" M 440.141 31.681 L 468.026 31.681 C 468.628 29.208 469.04 26.417 469.055 23.176 L 439.112 23.176 C 439.127 26.417 439.538 29.208 440.141 31.681 L 440.141 31.681 Z  M 467.222 34.516 L 440.945 34.516 C 441.545 36.375 442.22 38.052 442.851 39.62 C 444.148 42.845 445.275 45.644 445.335 48.769 C 445.377 50.944 445.018 52.754 444.654 54.586 C 443.719 59.301 442.75 64.187 449.925 75.502 C 450.92 76.995 452.235 77.89 454.083 77.89 C 455.828 77.89 457.345 76.983 458.241 75.502 C 465.416 64.186 464.447 59.301 463.512 54.585 C 463.149 52.754 462.79 50.944 462.831 48.769 C 462.891 45.644 464.018 42.845 465.315 39.621 C 465.947 38.052 466.622 36.375 467.222 34.516 L 467.222 34.516 Z  M 447.533 77.019 C 439.752 64.748 440.832 59.301 441.875 54.043 C 442.214 52.339 442.547 50.657 442.512 48.813 C 442.463 46.227 441.423 43.646 440.227 40.672 C 438.325 35.95 436.052 30.3 436.306 21.72 L 436.347 20.342 L 437.718 20.342 L 470.449 20.342 L 471.819 20.342 L 471.86 21.72 C 472.114 30.3 469.841 35.95 467.939 40.672 C 466.743 43.646 465.704 46.227 465.655 48.813 C 465.62 50.657 465.954 52.34 466.291 54.043 C 467.334 59.301 468.414 64.748 460.634 77.019 C 459.449 78.895 457.689 80.176 455.501 80.591 L 455.501 91.168 L 455.501 101.342 L 470.761 101.342 L 470.761 104.177 L 437.406 104.177 L 437.406 101.342 L 452.666 101.342 L 452.666 91.168 L 452.666 80.591 C 450.548 80.19 448.644 78.87 447.533 77.019 Z " fill-rule="evenodd" fill="rgb(255,255,255)" fill-opacity="0.25"/><path d=" M 54.746 162.239 L 80.241 162.239 C 80.529 159.622 81.24 156.816 82.549 153.735 L 52.438 153.735 C 53.747 156.816 54.458 159.622 54.746 162.239 L 54.746 162.239 Z  M 80.087 165.074 L 54.9 165.074 C 54.895 170.168 53.385 174.605 51.845 179.123 C 50.261 183.772 48.645 188.512 48.798 194.103 C 48.923 198.707 50.919 203.056 54.364 206.175 C 57.576 209.083 62.063 210.929 67.494 210.929 C 72.924 210.929 77.412 209.083 80.623 206.175 C 84.068 203.056 86.064 198.706 86.19 194.103 C 86.342 188.512 84.727 183.772 83.143 179.123 C 81.603 174.605 80.092 170.168 80.087 165.074 L 80.087 165.074 Z  M 66.076 213.725 C 60.534 213.425 55.895 211.37 52.471 208.268 C 48.45 204.627 46.121 199.548 45.975 194.169 C 45.809 188.065 47.503 183.092 49.165 178.215 C 51.709 170.75 54.172 163.522 48.97 152.938 L 47.968 150.9 L 50.237 150.9 L 84.75 150.9 L 87.019 150.9 L 86.019 152.938 C 80.815 163.522 83.279 170.75 85.822 178.215 C 87.484 183.092 89.18 188.065 89.014 194.169 C 88.867 199.548 86.537 204.627 82.517 208.268 C 79.092 211.37 74.453 213.425 68.911 213.725 L 68.911 233.114 L 85.435 233.114 L 85.435 235.949 L 49.553 235.949 L 49.553 233.114 L 66.076 233.114 L 66.076 213.725 Z " fill-rule="evenodd" fill="rgb(255,255,255)" fill-opacity="0.25"/><path d=" M 178.263 162.918 L 217.15 162.918 C 216.849 160.209 216.36 157.372 215.665 154.414 L 179.748 154.414 C 179.053 157.372 178.564 160.209 178.263 162.918 L 178.263 162.918 Z  M 217.401 165.752 L 178.012 165.752 C 177.928 167.034 177.887 168.284 177.887 169.501 C 177.887 177.771 179.768 184.513 182.781 189.455 C 186.042 194.801 191.255 198.909 197.707 198.909 C 204.119 198.909 209.345 194.845 212.632 189.455 C 215.646 184.513 217.526 177.771 217.526 169.501 C 217.526 168.284 217.485 167.034 217.401 165.752 L 217.401 165.752 Z  M 196.289 201.685 C 189.407 201.125 183.884 196.693 180.368 190.928 C 177.095 185.561 175.053 178.314 175.053 169.501 C 175.053 164.403 175.736 158.766 177.263 152.653 L 177.53 151.579 L 178.636 151.579 L 216.778 151.579 L 217.883 151.579 L 218.151 152.653 C 219.677 158.766 220.36 164.403 220.36 169.501 C 220.36 178.314 218.318 185.56 215.046 190.928 C 211.514 196.719 205.962 201.129 199.124 201.685 L 199.124 233.034 L 217 233.034 L 217 235.869 L 178.413 235.869 L 178.413 233.034 L 196.289 233.034 L 196.289 201.685 Z " fill-rule="evenodd" fill="rgb(255,255,255)" fill-opacity="0.25"/><path d=" M 329.316 196.082 L 329.316 230.056 L 343.933 230.056 L 343.933 232.89 L 311.865 232.89 L 311.865 230.056 L 326.481 230.056 L 326.481 196.088 C 324.598 195.891 322.74 195.299 321.014 194.315 C 315.853 191.37 311.908 184.908 312.153 174.967 C 312.23 171.818 312.776 168.117 313.477 164.591 C 314.565 159.104 316.038 153.971 316.689 152.056 L 317.017 151.093 L 318.029 151.093 L 337.769 151.093 L 338.781 151.093 L 339.109 152.056 C 339.76 153.971 341.233 159.104 342.322 164.591 C 343.021 168.117 343.567 171.818 343.645 174.967 C 343.891 184.909 339.944 191.37 334.784 194.315 C 333.062 195.297 331.204 195.887 329.316 196.082 L 329.316 196.082 Z  M 316.061 166.138 C 315.478 169.238 315.042 172.386 314.977 175.033 C 314.761 183.785 318.072 189.381 322.409 191.856 C 324.127 192.837 326.013 193.327 327.898 193.327 C 329.835 193.327 331.709 192.815 333.39 191.856 C 337.726 189.382 341.038 183.786 340.822 175.033 C 340.757 172.386 340.32 169.239 339.737 166.138 L 316.061 166.138 L 316.061 166.138 Z  M 339.163 163.303 C 338.322 159.415 337.356 155.915 336.74 153.927 L 319.059 153.927 C 318.441 155.915 317.476 159.415 316.635 163.303 L 339.163 163.303 Z " fill-rule="evenodd" fill="rgb(255,255,255)" fill-opacity="0.25"/><path d=" M 455.501 200.293 L 455.501 233.188 L 470.328 233.188 L 470.328 236.022 L 437.839 236.022 L 437.839 233.188 L 452.666 233.188 L 452.666 200.302 C 451.139 200.094 449.637 199.542 448.246 198.641 C 446.737 197.664 445.297 196.188 444.36 194.654 C 440.004 187.856 436.899 181.394 435.28 174.812 C 433.65 168.185 433.53 161.462 435.155 154.188 L 435.404 153.075 L 436.534 153.075 L 471.633 153.075 L 472.762 153.075 L 473.011 154.188 C 474.637 161.462 474.517 168.185 472.887 174.812 C 471.267 181.394 468.163 187.856 463.807 194.654 C 462.812 196.223 461.421 197.655 459.854 198.657 C 458.483 199.534 457.005 200.08 455.501 200.293 L 455.501 200.293 Z  M 438.026 174.137 C 439.565 180.392 442.546 186.581 446.74 193.126 C 447.557 194.382 448.521 195.453 449.785 196.271 C 451.116 197.133 452.585 197.561 454.053 197.561 C 455.525 197.561 457 197.131 458.337 196.276 C 459.546 195.503 460.667 194.341 461.426 193.126 C 465.621 186.581 468.602 180.392 470.14 174.137 C 470.7 171.861 471.069 169.572 471.238 167.249 L 436.929 167.249 C 437.098 169.572 437.467 171.861 438.026 174.137 L 438.026 174.137 Z  M 471.343 164.415 C 471.348 161.649 471.069 158.826 470.489 155.91 L 437.678 155.91 C 437.098 158.826 436.818 161.649 436.823 164.415 L 471.343 164.415 Z " fill-rule="evenodd" fill="rgb(255,255,255)" fill-opacity="0.25"/><path d=" M 68.911 323.539 L 68.911 357.362 L 87.577 357.362 L 87.577 360.197 L 47.41 360.197 L 47.41 357.362 L 66.076 357.362 L 66.076 323.539 C 59.205 323.182 53.015 320.25 48.454 315.689 C 43.581 310.816 40.566 304.084 40.566 296.648 C 40.566 295.145 40.693 293.656 40.936 292.197 C 41.185 290.706 41.552 289.265 42.027 287.885 L 42.357 286.927 L 43.367 286.927 L 91.62 286.927 L 92.631 286.927 L 92.961 287.885 C 93.435 289.265 93.804 290.706 94.051 292.197 C 94.294 293.656 94.421 295.145 94.421 296.648 C 94.421 304.084 91.407 310.816 86.534 315.689 C 81.973 320.25 75.782 323.182 68.911 323.539 L 68.911 323.539 Z  M 50.458 313.685 C 54.817 318.044 60.841 320.741 67.494 320.741 C 74.146 320.741 80.17 318.044 84.529 313.685 C 87.893 310.322 90.266 305.969 91.175 301.101 L 67.494 301.101 L 43.812 301.101 C 44.722 305.969 47.095 310.322 50.458 313.685 L 50.458 313.685 Z  M 91.532 298.266 C 91.568 297.731 91.586 297.192 91.586 296.648 C 91.586 295.278 91.475 293.946 91.261 292.662 C 91.097 291.679 90.871 290.71 90.588 289.762 L 44.399 289.762 C 44.116 290.71 43.891 291.679 43.727 292.662 C 43.513 293.946 43.401 295.278 43.401 296.648 C 43.401 297.192 43.42 297.731 43.455 298.266 L 67.494 298.266 L 91.532 298.266 Z " fill-rule="evenodd" fill="rgb(255,255,255)" fill-opacity="0.25"/><path d=" M 199.124 318.495 L 199.124 359.383 L 218.394 359.383 L 218.394 362.218 L 177.02 362.218 L 177.02 359.383 L 196.29 359.383 L 196.29 318.495 C 193.482 318.397 190.792 318.004 188.27 317.347 C 182.719 315.899 178.014 313.157 174.685 309.409 C 171.317 305.616 169.364 300.815 169.364 295.302 C 169.364 293.224 169.646 291.034 170.242 288.751 L 170.519 287.688 L 171.609 287.688 L 223.805 287.688 L 224.894 287.688 L 225.172 288.751 C 225.768 291.034 226.05 293.224 226.05 295.302 C 226.05 300.815 224.098 305.615 220.728 309.409 C 217.4 313.157 212.695 315.899 207.144 317.347 C 204.621 318.004 201.931 318.397 199.124 318.495 L 199.124 318.495 Z  M 188.978 314.611 C 191.672 315.315 194.606 315.685 197.707 315.685 C 200.808 315.685 203.741 315.315 206.435 314.611 C 211.443 313.307 215.662 310.862 218.614 307.537 C 220.1 305.864 221.268 303.961 222.055 301.861 L 173.36 301.861 C 174.146 303.961 175.313 305.864 176.8 307.538 C 179.752 310.862 183.97 313.307 188.978 314.611 L 188.978 314.611 Z  M 222.858 299.026 C 223.093 297.834 223.216 296.591 223.216 295.302 C 223.216 293.765 223.045 292.169 222.69 290.522 L 172.724 290.522 C 172.369 292.169 172.199 293.765 172.199 295.302 C 172.199 296.591 172.321 297.834 172.557 299.026 L 222.858 299.026 Z " fill-rule="evenodd" fill="rgb(255,255,255)" fill-opacity="0.25"/><path d=" M 307.723 298.401 L 347.325 298.401 L 348.569 289.897 L 306.478 289.897 L 307.723 298.401 L 307.723 298.401 Z  M 346.91 301.236 L 308.138 301.236 L 313.813 340.032 C 314.135 342.498 316.989 344.083 319.076 344.849 C 321.528 345.749 324.519 346.199 327.524 346.199 C 330.529 346.199 333.519 345.749 335.972 344.849 C 338.181 344.038 340.794 342.571 341.235 340.032 L 346.91 301.236 L 346.91 301.236 Z  M 303.203 287.063 L 304.841 287.063 L 350.207 287.063 L 351.845 287.063 L 351.607 288.685 L 343.989 340.746 L 343.284 357.4 L 343.226 358.763 L 341.872 358.763 L 313.177 358.763 L 311.822 358.763 L 311.765 357.4 L 311.06 340.746 L 303.203 287.063 L 303.203 287.063 Z  M 340.966 345.345 L 340.518 355.928 L 314.53 355.928 L 314.082 345.345 C 315.203 346.225 316.571 346.944 318.102 347.507 C 320.875 348.524 324.208 349.034 327.524 349.034 C 330.84 349.034 334.173 348.524 336.946 347.507 C 338.477 346.944 339.846 346.225 340.966 345.345 Z " fill-rule="evenodd" fill="rgb(255,255,255)" fill-opacity="0.25"/><path d=" M 430.66 301.379 L 477.506 301.379 L 477.506 292.875 L 430.66 292.875 L 430.66 301.379 L 430.66 301.379 Z  M 477.506 304.214 L 430.66 304.214 L 430.661 330.382 C 430.685 334.5 436.596 337.233 444.155 338.511 C 447.273 339.037 450.672 339.301 454.083 339.301 C 457.494 339.301 460.894 339.037 464.011 338.511 C 471.571 337.233 477.48 334.5 477.505 330.382 L 477.506 304.214 L 477.506 304.214 Z  M 480.341 291.457 C 480.341 311.916 480.34 332.374 480.34 352.833 L 480.34 354.25 L 478.923 354.25 L 429.244 354.25 L 427.826 354.25 L 427.826 352.833 C 427.826 332.374 427.826 311.916 427.826 291.457 L 427.826 290.04 L 429.243 290.04 L 478.923 290.04 L 480.341 290.04 L 480.341 291.457 L 480.341 291.457 Z  M 477.505 336.126 L 477.505 351.415 L 430.661 351.415 L 430.661 336.126 C 433.502 338.659 438.23 340.379 443.69 341.302 C 446.982 341.857 450.54 342.136 454.083 342.136 C 457.626 342.136 461.184 341.857 464.476 341.301 C 469.936 340.379 474.664 338.658 477.505 336.126 Z " fill-rule="evenodd" fill="rgb(255,255,255)" fill-opacity="0.25"/><path d=" M 41.914 431.395 L 93.074 431.395 C 92.619 428.278 92.153 425.369 91.726 422.803 L 43.262 422.803 C 42.834 425.369 42.368 428.278 41.914 431.395 L 41.914 431.395 Z  M 93.476 434.23 L 41.513 434.23 C 41.246 436.168 40.989 438.166 40.754 440.195 C 39.95 447.102 39.387 454.331 39.498 460.677 C 39.571 462.885 40.17 465.267 41.52 467.05 C 44.321 470.751 51.179 472.373 55.326 473.047 C 59.111 473.662 63.315 473.949 67.477 473.893 C 71.634 473.893 75.548 473.716 79.661 473.047 C 83.81 472.373 90.666 470.751 93.468 467.05 C 94.845 465.231 95.388 462.922 95.49 460.677 C 95.601 454.331 95.037 447.102 94.234 440.195 C 93.998 438.166 93.741 436.168 93.476 434.23 L 93.476 434.23 Z  M 37.94 439.875 C 38.753 432.896 39.81 426.249 40.67 421.153 L 40.869 419.969 L 42.064 419.969 L 92.923 419.969 L 94.118 419.969 L 94.318 421.153 C 95.177 426.249 96.234 432.896 97.047 439.875 C 97.86 446.872 98.431 454.235 98.312 460.771 C 98.232 463.139 97.639 465.692 96.412 467.737 L 89.984 487.053 L 89.66 488.026 L 88.644 488.026 L 46.343 488.026 L 45.327 488.026 L 45.003 487.053 L 38.575 467.738 C 37.349 465.691 36.756 463.141 36.675 460.771 C 36.557 454.235 37.127 446.873 37.94 439.875 L 37.94 439.875 Z  M 92.027 471.976 L 87.629 485.192 L 47.358 485.192 L 42.96 471.976 C 46.483 474.055 50.879 475.189 54.872 475.837 C 58.8 476.476 63.166 476.774 67.494 476.716 C 71.821 476.774 76.187 476.476 80.115 475.837 C 84.108 475.189 88.504 474.055 92.027 471.976 Z " fill-rule="evenodd" fill="rgb(255,255,255)" fill-opacity="0.25"/><path d=" M 218.396 429.095 L 197.707 429.095 L 177.018 429.095 L 173.966 436.432 C 173.023 438.788 172.432 441.264 172.422 443.812 C 172.408 447.244 173.463 450.375 175.445 453.019 C 177.456 455.701 180.435 457.901 184.234 459.431 C 187.983 460.94 192.519 461.792 197.707 461.814 C 202.895 461.792 207.431 460.94 211.18 459.431 C 214.979 457.901 217.957 455.701 219.969 453.019 C 221.951 450.375 223.006 447.244 222.992 443.812 C 222.982 441.326 222.393 438.725 221.447 436.432 L 218.396 429.095 L 218.396 429.095 Z  M 216.946 492.679 L 178.468 492.679 L 178.468 489.844 L 196.29 489.844 L 196.29 464.611 C 191.307 464.451 186.899 463.551 183.183 462.055 C 178.896 460.329 175.509 457.81 173.186 454.712 C 170.834 451.575 169.582 447.864 169.599 443.801 C 169.61 440.873 170.269 438.055 171.353 435.347 L 179.484 415.796 L 179.849 414.921 L 180.791 414.921 L 214.623 414.921 L 215.565 414.921 L 215.929 415.796 L 224.06 435.347 C 225.146 437.927 225.805 440.998 225.815 443.801 C 225.831 447.864 224.58 451.575 222.227 454.712 C 219.904 457.81 216.518 460.33 212.231 462.055 C 208.514 463.551 204.107 464.451 199.124 464.611 L 199.124 489.844 L 216.946 489.844 L 216.946 492.679 L 216.946 492.679 Z  M 178.196 426.26 L 197.707 426.26 L 217.217 426.26 L 213.68 417.756 L 181.733 417.756 L 178.196 426.26 Z " fill-rule="evenodd" fill="rgb(255,255,255)" fill-opacity="0.25"/><path d=" M 345.473 432.754 L 327.899 432.754 L 310.326 432.754 L 320.539 449.145 C 321.352 450.444 322.438 451.618 323.74 452.439 C 325.044 453.261 326.473 453.673 327.899 453.673 C 329.325 453.673 330.754 453.261 332.059 452.439 C 333.36 451.618 334.447 450.444 335.26 449.145 L 345.473 432.754 L 345.473 432.754 Z  M 308.56 429.919 L 327.899 429.919 L 347.239 429.919 L 352.538 421.414 L 303.261 421.414 L 308.56 429.919 L 308.56 429.919 Z  M 318.136 450.64 L 299.509 420.745 L 298.16 418.58 L 300.71 418.58 L 355.088 418.58 L 357.639 418.58 L 356.29 420.745 L 337.662 450.64 C 336.623 452.303 335.227 453.782 333.564 454.83 C 332.223 455.677 330.782 456.202 329.316 456.408 L 329.316 491.115 L 346.134 491.115 L 346.134 493.949 L 309.665 493.949 L 309.665 491.115 L 326.481 491.115 L 326.481 456.408 C 325.017 456.202 323.575 455.677 322.234 454.83 C 320.597 453.798 319.149 452.286 318.136 450.64 Z " fill-rule="evenodd" fill="rgb(255,255,255)" fill-opacity="0.25"/><path d=" M 454.083 494.658 L 438.304 494.658 L 437.128 494.658 L 436.914 493.495 C 436.577 491.66 436.628 490.272 437.003 488.948 C 437.366 487.664 438.014 486.525 438.897 485.119 C 446.927 472.406 443.999 462.43 440.821 451.604 C 438.958 445.253 437.012 438.621 436.982 430.912 C 436.958 424.433 437.487 420.635 438.304 414.773 C 438.47 413.582 438.648 412.299 438.801 411.164 L 438.966 409.936 L 440.201 409.936 L 467.965 409.936 L 469.2 409.936 L 469.365 411.164 C 469.518 412.299 469.697 413.582 469.862 414.773 C 470.679 420.635 471.208 424.433 471.185 430.912 C 471.155 438.621 469.208 445.253 467.345 451.604 C 464.167 462.43 461.239 472.406 469.269 485.119 C 470.153 486.525 470.8 487.664 471.164 488.948 C 471.539 490.272 471.59 491.66 471.252 493.495 L 471.038 494.658 L 469.862 494.658 L 454.083 494.658 L 454.083 494.658 Z  M 440.308 421.274 L 467.859 421.274 C 467.647 419.365 467.376 417.419 467.061 415.16 C 466.959 414.428 466.853 413.666 466.73 412.77 L 441.435 412.77 C 441.313 413.666 441.207 414.429 441.105 415.16 C 440.79 417.419 440.519 419.365 440.308 421.274 L 440.308 421.274 Z  M 468.128 424.109 L 440.038 424.109 C 439.88 426.159 439.796 428.319 439.806 430.912 C 439.833 438.195 441.725 444.637 443.534 450.806 C 446.41 460.606 449.093 469.749 444.369 480.812 C 446.833 481.837 450.44 482.35 454.083 482.35 C 457.726 482.35 461.333 481.836 463.797 480.812 C 459.074 469.749 461.756 460.606 464.632 450.806 C 466.442 444.637 468.333 438.195 468.36 430.912 C 468.37 428.319 468.287 426.159 468.128 424.109 L 468.128 424.109 Z  M 439.539 491.823 L 454.083 491.823 L 468.627 491.823 C 468.686 491.015 468.618 490.343 468.439 489.713 C 468.171 488.764 467.628 487.819 466.877 486.625 C 466.179 485.519 465.557 484.433 465.004 483.365 C 462.146 484.578 458.097 485.184 454.083 485.184 C 450.068 485.184 446.019 484.577 443.163 483.365 C 442.61 484.433 441.988 485.519 441.289 486.625 C 440.538 487.819 439.995 488.764 439.727 489.713 C 439.548 490.343 439.48 491.015 439.539 491.823 Z " fill-rule="evenodd" fill="rgb(255,255,255)" fill-opacity="0.25"/></g><g><path d=" M 562.484 355.568 L 580.856 355.568 L 580.856 326.133 C 579.546 325.942 578.317 325.488 577.171 324.822 C 575.529 323.87 574.07 322.483 572.778 320.818 C 569.41 316.478 568.571 312.757 567.627 308.564 C 567.239 306.846 566.833 305.042 566.206 303.073 C 562.895 302.642 560.253 301.06 558.282 298.928 C 555.46 295.875 554.049 291.678 554.049 288.157 L 554.049 286.74 L 555.466 286.74 L 609.082 286.74 L 610.499 286.74 L 610.499 288.157 C 610.499 291.678 609.088 295.875 606.265 298.928 C 604.295 301.06 601.652 302.642 598.342 303.073 C 597.716 305.042 597.308 306.846 596.921 308.564 C 595.976 312.757 595.137 316.478 591.77 320.818 C 590.477 322.483 589.018 323.87 587.378 324.822 C 586.23 325.488 585.003 325.942 583.691 326.133 L 583.691 355.568 L 602.063 355.568 L 602.063 358.402 L 562.484 358.402 L 562.484 355.568 L 562.484 355.568 Z  M 569.2 303.192 C 569.69 304.87 570.044 306.438 570.384 307.944 C 571.255 311.811 572.029 315.243 575.014 319.091 C 576.09 320.476 577.28 321.616 578.588 322.375 C 579.714 323.028 580.94 323.401 582.274 323.401 C 583.607 323.401 584.835 323.028 585.96 322.375 C 587.267 321.616 588.458 320.476 589.533 319.091 C 592.519 315.243 593.293 311.811 594.164 307.944 C 594.504 306.438 594.857 304.87 595.347 303.192 L 582.274 303.192 L 569.2 303.192 L 569.2 303.192 Z  M 582.274 300.357 L 596.494 300.357 C 599.805 300.357 602.372 298.985 604.195 297.012 C 606.14 294.908 607.268 292.13 607.577 289.575 L 556.97 289.575 C 557.28 292.13 558.407 294.908 560.352 297.012 C 562.177 298.985 564.742 300.357 568.053 300.357 L 582.274 300.357 Z " fill-rule="evenodd" fill="rgb(255,255,255)" fill-opacity="0.25"/><path d=" M 694.561 292.236 L 730.413 292.236 C 730.521 289.534 730.553 286.705 730.495 283.731 L 712.487 283.731 L 694.479 283.731 C 694.421 286.705 694.453 289.534 694.561 292.236 L 694.561 292.236 Z  M 730.269 295.07 L 694.705 295.07 C 695.608 309.783 698.77 320.644 701.707 330.72 C 702.95 334.986 704.153 339.115 705.119 343.268 C 705.521 344.835 706.514 345.701 707.963 346.348 C 709.274 346.934 710.872 347.226 712.487 347.226 C 714.102 347.226 715.7 346.934 717.011 346.348 C 718.44 345.709 719.47 344.826 719.855 343.268 C 720.821 339.115 722.024 334.986 723.267 330.72 C 726.203 320.644 729.366 309.783 730.269 295.07 L 730.269 295.07 Z  M 702.333 343.785 C 701.364 339.639 700.198 335.638 698.994 331.506 C 695.213 318.527 691.058 304.272 691.688 282.275 L 691.728 280.896 L 693.1 280.896 L 712.487 280.896 L 731.874 280.896 L 733.246 280.896 L 733.285 282.275 C 733.915 304.272 729.761 318.527 725.98 331.506 C 724.776 335.638 723.61 339.639 722.641 343.785 C 722.842 348.587 725.555 350.698 728.056 352.642 C 730.732 354.722 733.21 356.647 733.272 360.891 L 733.294 362.325 L 731.86 362.325 L 712.487 362.325 L 693.114 362.325 L 691.681 362.325 L 691.702 360.891 C 691.764 356.647 694.242 354.722 696.918 352.642 C 699.419 350.698 702.133 348.587 702.333 343.785 L 702.333 343.785 Z  M 720.409 347.534 C 719.759 348.09 718.998 348.555 718.163 348.928 C 716.472 349.684 714.47 350.062 712.487 350.062 C 710.505 350.062 708.503 349.684 706.811 348.928 C 705.976 348.555 705.216 348.09 704.565 347.534 C 703.451 351.15 700.977 353.074 698.656 354.878 C 696.918 356.229 695.285 357.5 694.727 359.49 L 712.487 359.49 L 730.247 359.49 C 729.689 357.5 728.056 356.229 726.318 354.878 C 723.997 353.074 721.522 351.15 720.409 347.534 Z " fill-rule="evenodd" fill="rgb(255,255,255)" fill-opacity="0.25"/><path d=" M 817.886 306.406 L 867.473 306.406 C 869.02 303.205 870.366 300.234 871.299 297.901 L 814.059 297.901 C 814.992 300.234 816.338 303.205 817.886 306.406 L 817.886 306.406 Z  M 866.081 309.241 L 819.278 309.241 C 819.461 309.607 819.645 309.975 819.831 310.343 C 822.782 316.193 826.085 322.224 828.589 326.214 C 829.789 328.134 831.566 329.879 833.465 331.105 C 836.23 332.892 839.453 333.785 842.679 333.785 C 845.905 333.785 849.128 332.892 851.893 331.105 C 853.862 329.834 855.497 328.181 856.769 326.214 C 859.273 322.224 862.576 316.193 865.528 310.343 C 865.714 309.975 865.898 309.607 866.081 309.241 L 866.081 309.241 Z  M 826.204 327.73 C 823.647 323.658 820.293 317.536 817.306 311.616 C 814.42 305.896 811.863 300.335 810.68 296.949 L 810.022 295.067 L 812.014 295.067 L 873.344 295.067 L 875.336 295.067 L 874.678 296.949 C 873.495 300.335 870.938 305.896 868.052 311.616 C 865.066 317.536 861.711 323.658 859.155 327.73 C 858.788 328.317 858.346 328.915 857.91 329.452 C 857.677 331.747 857.817 334.144 858.896 336.226 C 860.529 338.909 862.938 341.872 862.958 345.14 C 862.98 349.071 860.02 352.689 855.927 352.689 L 842.679 352.689 L 829.431 352.689 C 825.338 352.689 822.377 349.073 822.401 345.14 C 822.421 341.872 824.83 338.909 826.463 336.226 C 827.541 334.144 827.68 331.747 827.448 329.452 C 827.036 328.943 826.534 328.292 826.204 327.73 L 826.204 327.73 Z  M 855.014 332.337 C 855.122 334.068 855.577 336.163 856.455 337.642 C 857.679 339.662 860.121 342.756 860.134 345.151 C 860.148 347.528 858.452 349.854 855.927 349.854 L 842.679 349.854 L 829.431 349.854 C 826.907 349.854 825.211 347.528 825.224 345.151 C 825.237 342.816 827.7 339.627 828.904 337.642 C 829.787 336.095 830.233 334.116 830.345 332.337 C 830.858 332.75 831.39 333.133 831.937 333.486 C 835.171 335.575 838.927 336.62 842.679 336.62 C 846.43 336.62 850.187 335.575 853.422 333.486 C 853.969 333.133 854.501 332.75 855.014 332.337 Z " fill-rule="evenodd" fill="rgb(255,255,255)" fill-opacity="0.25"/><path d=" M 958.921 290.316 L 986.806 290.316 C 987.408 287.844 987.82 285.053 987.835 281.812 L 957.892 281.812 C 957.907 285.053 958.318 287.844 958.921 290.316 L 958.921 290.316 Z  M 986.002 293.151 L 959.725 293.151 C 960.325 295.011 961 296.688 961.631 298.256 C 962.928 301.48 964.055 304.28 964.115 307.404 C 964.157 309.58 963.798 311.39 963.434 313.222 C 962.499 317.937 961.53 322.823 968.705 334.138 C 969.7 335.63 971.015 336.525 972.863 336.525 C 974.608 336.525 976.125 335.619 977.021 334.138 C 984.196 322.822 983.227 317.937 982.292 313.221 C 981.929 311.39 981.57 309.58 981.611 307.404 C 981.671 304.28 982.798 301.481 984.095 298.256 C 984.727 296.688 985.402 295.011 986.002 293.151 L 986.002 293.151 Z  M 966.313 335.654 C 958.532 323.384 959.612 317.937 960.655 312.679 C 960.994 310.975 961.327 309.292 961.292 307.449 C 961.243 304.863 960.203 302.281 959.007 299.308 C 957.105 294.585 954.832 288.936 955.086 280.356 L 955.127 278.978 L 956.498 278.978 L 989.229 278.978 L 990.599 278.978 L 990.64 280.356 C 990.894 288.936 988.621 294.585 986.72 299.308 C 985.523 302.281 984.484 304.863 984.435 307.449 C 984.4 309.292 984.734 310.975 985.071 312.679 C 986.114 317.937 987.194 323.384 979.414 335.654 C 978.229 337.53 976.47 338.812 974.281 339.226 L 974.281 349.803 L 974.281 359.978 L 989.541 359.978 L 989.541 362.812 L 956.186 362.812 L 956.186 359.978 L 971.446 359.978 L 971.446 349.803 L 971.446 339.226 C 969.328 338.825 967.424 337.505 966.313 335.654 Z " fill-rule="evenodd" fill="rgb(255,255,255)" fill-opacity="0.25"/><path d=" M 569.526 420.875 L 595.021 420.875 C 595.309 418.257 596.02 415.452 597.329 412.371 L 567.219 412.371 C 568.527 415.452 569.238 418.257 569.526 420.875 L 569.526 420.875 Z  M 594.867 423.71 L 569.68 423.71 C 569.676 428.803 568.165 433.241 566.625 437.759 C 565.041 442.407 563.426 447.148 563.578 452.739 C 563.703 457.342 565.699 461.691 569.144 464.811 C 572.356 467.719 576.844 469.564 582.274 469.564 C 587.704 469.564 592.192 467.719 595.403 464.811 C 598.848 461.691 600.845 457.342 600.97 452.739 C 601.122 447.148 599.507 442.408 597.923 437.759 C 596.384 433.241 594.872 428.803 594.867 423.71 L 594.867 423.71 Z  M 580.856 472.361 C 575.314 472.061 570.676 470.005 567.251 466.904 C 563.23 463.263 560.901 458.184 560.755 452.805 C 560.589 446.701 562.283 441.728 563.945 436.851 C 566.489 429.386 568.952 422.157 563.75 411.573 L 562.748 409.536 L 565.017 409.536 L 599.53 409.536 L 601.8 409.536 L 600.799 411.573 C 595.595 422.157 598.059 429.386 600.602 436.851 C 602.264 441.728 603.96 446.701 603.794 452.805 C 603.647 458.184 601.317 463.263 597.297 466.903 C 593.872 470.005 589.233 472.061 583.691 472.361 L 583.691 491.75 L 600.215 491.75 L 600.215 494.584 L 564.333 494.584 L 564.333 491.75 L 580.856 491.75 L 580.856 472.361 Z " fill-rule="evenodd" fill="rgb(255,255,255)" fill-opacity="0.25"/><path d=" M 693.043 421.554 L 731.93 421.554 C 731.629 418.845 731.14 416.007 730.445 413.049 L 694.528 413.049 C 693.833 416.007 693.345 418.845 693.043 421.554 L 693.043 421.554 Z  M 732.181 424.388 L 692.792 424.388 C 692.708 425.669 692.667 426.919 692.667 428.137 C 692.667 436.406 694.548 443.148 697.561 448.09 C 700.822 453.437 706.035 457.544 712.487 457.544 C 718.899 457.544 724.125 453.481 727.412 448.091 C 730.427 443.148 732.306 436.406 732.306 428.137 C 732.306 426.919 732.265 425.669 732.181 424.388 L 732.181 424.388 Z  M 711.069 460.321 C 704.187 459.761 698.664 455.329 695.148 449.563 C 691.875 444.197 689.833 436.95 689.833 428.137 C 689.833 423.039 690.516 417.402 692.043 411.289 L 692.31 410.214 L 693.416 410.214 L 731.558 410.214 L 732.663 410.214 L 732.931 411.289 C 734.457 417.402 735.14 423.039 735.14 428.137 C 735.14 436.949 733.098 444.196 729.826 449.563 C 726.294 455.355 720.742 459.765 713.904 460.321 L 713.904 491.67 L 731.78 491.67 L 731.78 494.505 L 693.193 494.505 L 693.193 491.67 L 711.069 491.67 L 711.069 460.321 Z " fill-rule="evenodd" fill="rgb(255,255,255)" fill-opacity="0.25"/><path d=" M 844.096 454.718 L 844.096 488.691 L 858.713 488.691 L 858.713 491.526 L 826.645 491.526 L 826.645 488.691 L 841.261 488.691 L 841.261 454.724 C 839.378 454.526 837.52 453.935 835.794 452.95 C 830.633 450.006 826.688 443.544 826.933 433.603 C 827.011 430.454 827.556 426.752 828.257 423.227 C 829.345 417.74 830.818 412.606 831.47 410.691 L 831.797 409.729 L 832.809 409.729 L 852.55 409.729 L 853.561 409.729 L 853.889 410.691 C 854.54 412.606 856.013 417.74 857.102 423.227 C 857.802 426.753 858.347 430.454 858.426 433.603 C 858.671 443.544 854.724 450.006 849.564 452.95 C 847.843 453.933 845.984 454.522 844.096 454.718 L 844.096 454.718 Z  M 830.842 424.773 C 830.258 427.874 829.822 431.022 829.757 433.668 C 829.541 442.421 832.852 448.017 837.189 450.492 C 838.907 451.473 840.793 451.963 842.678 451.963 C 844.615 451.963 846.489 451.451 848.17 450.492 C 852.506 448.018 855.818 442.421 855.602 433.668 C 855.537 431.022 855.1 427.875 854.517 424.773 L 830.842 424.773 L 830.842 424.773 Z  M 853.943 421.938 C 853.102 418.05 852.136 414.551 851.52 412.563 L 833.839 412.563 C 833.221 414.551 832.256 418.05 831.415 421.938 L 853.943 421.938 Z " fill-rule="evenodd" fill="rgb(255,255,255)" fill-opacity="0.25"/><path d=" M 974.281 458.929 L 974.281 491.823 L 989.108 491.823 L 989.108 494.658 L 956.619 494.658 L 956.619 491.823 L 971.446 491.823 L 971.446 458.938 C 969.919 458.73 968.417 458.177 967.026 457.277 C 965.517 456.3 964.077 454.823 963.14 453.29 C 958.784 446.491 955.679 440.03 954.06 433.448 C 952.43 426.821 952.31 420.098 953.935 412.824 L 954.184 411.711 L 955.314 411.711 L 990.413 411.711 L 991.542 411.711 L 991.791 412.824 C 993.417 420.098 993.297 426.821 991.667 433.448 C 990.047 440.03 986.943 446.491 982.587 453.29 C 981.593 454.859 980.201 456.29 978.634 457.292 C 977.263 458.169 975.785 458.716 974.281 458.929 L 974.281 458.929 Z  M 956.806 432.772 C 958.345 439.027 961.326 445.216 965.52 451.762 C 966.337 453.018 967.302 454.089 968.565 454.907 C 969.896 455.769 971.365 456.197 972.833 456.197 C 974.305 456.197 975.78 455.767 977.117 454.912 C 978.326 454.139 979.447 452.976 980.206 451.762 C 984.401 445.216 987.382 439.027 988.92 432.772 C 989.48 430.497 989.849 428.208 990.018 425.885 L 955.709 425.885 C 955.878 428.208 956.247 430.497 956.806 432.772 L 956.806 432.772 Z  M 990.123 423.05 C 990.128 420.285 989.849 417.461 989.269 414.546 L 956.458 414.546 C 955.878 417.461 955.598 420.285 955.603 423.05 L 990.123 423.05 Z " fill-rule="evenodd" fill="rgb(255,255,255)" fill-opacity="0.25"/></g><g><path d=" M 581.911 66.743 L 581.911 100.566 L 600.577 100.566 L 600.577 103.401 L 560.41 103.401 L 560.41 100.566 L 579.076 100.566 L 579.076 66.743 C 572.205 66.386 566.015 63.454 561.454 58.893 C 556.581 54.021 553.566 47.288 553.566 39.853 C 553.566 38.349 553.693 36.86 553.936 35.401 C 554.185 33.91 554.552 32.469 555.027 31.089 L 555.357 30.131 L 556.367 30.131 L 604.62 30.131 L 605.631 30.131 L 605.961 31.089 C 606.435 32.469 606.804 33.91 607.051 35.401 C 607.294 36.86 607.421 38.349 607.421 39.853 C 607.421 47.288 604.407 54.021 599.534 58.893 C 594.973 63.454 588.782 66.386 581.911 66.743 L 581.911 66.743 Z  M 563.458 56.889 C 567.817 61.248 573.841 63.945 580.494 63.945 C 587.146 63.945 593.17 61.248 597.529 56.889 C 600.893 53.526 603.266 49.173 604.175 44.305 L 580.494 44.305 L 556.812 44.305 C 557.722 49.173 560.095 53.526 563.458 56.889 L 563.458 56.889 Z  M 604.532 41.47 C 604.568 40.936 604.586 40.397 604.586 39.853 C 604.586 38.482 604.475 37.15 604.261 35.866 C 604.097 34.883 603.871 33.914 603.588 32.966 L 557.399 32.966 C 557.116 33.914 556.891 34.883 556.727 35.866 C 556.513 37.15 556.401 38.482 556.401 39.853 C 556.401 40.397 556.42 40.936 556.455 41.47 L 580.494 41.47 L 604.532 41.47 Z " fill-rule="evenodd" fill="rgb(255,255,255)" fill-opacity="0.25"/><path d=" M 712.124 61.699 L 712.124 102.587 L 731.394 102.587 L 731.394 105.422 L 690.02 105.422 L 690.02 102.587 L 709.29 102.587 L 709.29 61.699 C 706.482 61.601 703.792 61.208 701.27 60.551 C 695.719 59.104 691.014 56.361 687.685 52.613 C 684.317 48.82 682.364 44.02 682.364 38.506 C 682.364 36.428 682.646 34.238 683.242 31.955 L 683.519 30.892 L 684.609 30.892 L 736.805 30.892 L 737.894 30.892 L 738.172 31.955 C 738.768 34.238 739.05 36.428 739.05 38.506 C 739.05 44.02 737.098 48.819 733.728 52.613 C 730.4 56.361 725.695 59.104 720.144 60.551 C 717.621 61.208 714.931 61.601 712.124 61.699 L 712.124 61.699 Z  M 701.978 57.815 C 704.672 58.519 707.606 58.889 710.707 58.889 C 713.808 58.889 716.741 58.519 719.435 57.815 C 724.443 56.511 728.662 54.066 731.614 50.741 C 733.1 49.068 734.268 47.165 735.055 45.065 L 686.36 45.065 C 687.146 47.165 688.313 49.068 689.8 50.742 C 692.752 54.066 696.97 56.511 701.978 57.815 L 701.978 57.815 Z  M 735.858 42.231 C 736.093 41.038 736.216 39.795 736.216 38.506 C 736.216 36.969 736.045 35.373 735.69 33.727 L 685.724 33.727 C 685.369 35.373 685.199 36.969 685.199 38.506 C 685.199 39.795 685.321 41.038 685.557 42.231 L 735.858 42.231 Z " fill-rule="evenodd" fill="rgb(255,255,255)" fill-opacity="0.25"/><path d=" M 820.723 41.606 L 860.325 41.606 L 861.569 33.102 L 819.478 33.102 L 820.723 41.606 L 820.723 41.606 Z  M 859.91 44.44 L 821.138 44.44 L 826.813 83.236 C 827.135 85.702 829.989 87.287 832.076 88.053 C 834.528 88.953 837.519 89.403 840.524 89.403 C 843.529 89.403 846.519 88.953 848.972 88.053 C 851.181 87.242 853.794 85.775 854.235 83.236 L 859.91 44.44 L 859.91 44.44 Z  M 816.203 30.267 L 817.841 30.267 L 863.207 30.267 L 864.845 30.267 L 864.607 31.889 L 856.989 83.95 L 856.284 100.605 L 856.226 101.967 L 854.872 101.967 L 826.177 101.967 L 824.822 101.967 L 824.765 100.605 L 824.06 83.95 L 816.203 30.267 L 816.203 30.267 Z  M 853.966 88.549 L 853.518 99.132 L 827.53 99.132 L 827.082 88.549 C 828.203 89.429 829.571 90.148 831.102 90.711 C 833.875 91.729 837.208 92.238 840.524 92.238 C 843.84 92.238 847.173 91.729 849.946 90.711 C 851.477 90.148 852.846 89.429 853.966 88.549 Z " fill-rule="evenodd" fill="rgb(255,255,255)" fill-opacity="0.25"/><path d=" M 947.66 44.583 L 994.506 44.583 L 994.506 36.079 L 947.66 36.079 L 947.66 44.583 L 947.66 44.583 Z  M 994.506 47.418 L 947.66 47.418 L 947.661 73.586 C 947.685 77.704 953.596 80.438 961.155 81.715 C 964.273 82.241 967.672 82.505 971.083 82.505 C 974.494 82.505 977.894 82.241 981.011 81.715 C 988.571 80.438 994.48 77.704 994.505 73.586 L 994.506 47.418 L 994.506 47.418 Z  M 997.341 34.661 C 997.341 55.12 997.34 75.578 997.34 96.037 L 997.34 97.454 L 995.923 97.454 L 946.244 97.454 L 944.826 97.454 L 944.826 96.037 C 944.826 75.578 944.826 55.12 944.826 34.661 L 944.826 33.244 L 946.243 33.244 L 995.923 33.244 L 997.341 33.244 L 997.341 34.661 L 997.341 34.661 Z  M 994.505 79.33 L 994.505 94.619 L 947.661 94.619 L 947.661 79.33 C 950.502 81.863 955.23 83.583 960.69 84.506 C 963.982 85.062 967.54 85.34 971.083 85.34 C 974.626 85.34 978.184 85.062 981.476 84.505 C 986.936 83.583 991.664 81.862 994.505 79.33 Z " fill-rule="evenodd" fill="rgb(255,255,255)" fill-opacity="0.25"/><path d=" M 554.914 174.599 L 606.074 174.599 C 605.619 171.482 605.153 168.573 604.726 166.007 L 556.262 166.007 C 555.834 168.573 555.368 171.482 554.914 174.599 L 554.914 174.599 Z  M 606.476 177.434 L 554.513 177.434 C 554.246 179.372 553.989 181.37 553.754 183.399 C 552.95 190.306 552.387 197.535 552.498 203.881 C 552.571 206.089 553.17 208.471 554.52 210.254 C 557.321 213.955 564.179 215.577 568.326 216.251 C 572.111 216.866 576.315 217.153 580.477 217.097 C 584.634 217.097 588.548 216.92 592.661 216.251 C 596.81 215.577 603.666 213.955 606.468 210.254 C 607.845 208.435 608.388 206.126 608.49 203.881 C 608.601 197.535 608.037 190.306 607.234 183.399 C 606.998 181.37 606.741 179.372 606.476 177.434 L 606.476 177.434 Z  M 550.94 183.079 C 551.753 176.1 552.81 169.453 553.67 164.357 L 553.869 163.173 L 555.064 163.173 L 605.923 163.173 L 607.118 163.173 L 607.318 164.357 C 608.177 169.453 609.234 176.1 610.047 183.079 C 610.86 190.076 611.431 197.439 611.312 203.975 C 611.232 206.343 610.639 208.897 609.412 210.941 L 602.984 230.257 L 602.66 231.231 L 601.644 231.231 L 559.343 231.231 L 558.327 231.231 L 558.003 230.257 L 551.575 210.942 C 550.349 208.896 549.756 206.345 549.675 203.975 C 549.557 197.439 550.127 190.077 550.94 183.079 L 550.94 183.079 Z  M 605.027 215.18 L 600.629 228.397 L 560.358 228.397 L 555.96 215.18 C 559.483 217.259 563.879 218.393 567.872 219.041 C 571.8 219.68 576.166 219.979 580.494 219.92 C 584.821 219.979 589.187 219.68 593.115 219.041 C 597.108 218.393 601.504 217.259 605.027 215.18 Z " fill-rule="evenodd" fill="rgb(255,255,255)" fill-opacity="0.25"/><path d=" M 731.396 172.299 L 710.707 172.299 L 690.018 172.299 L 686.966 179.636 C 686.023 181.992 685.432 184.468 685.422 187.016 C 685.408 190.448 686.463 193.579 688.445 196.223 C 690.456 198.905 693.435 201.106 697.234 202.635 C 700.983 204.144 705.519 204.996 710.707 205.018 C 715.895 204.996 720.431 204.144 724.18 202.635 C 727.979 201.106 730.957 198.905 732.969 196.223 C 734.951 193.579 736.006 190.448 735.992 187.016 C 735.982 184.53 735.393 181.929 734.447 179.636 L 731.396 172.299 L 731.396 172.299 Z  M 729.946 235.883 L 691.468 235.883 L 691.468 233.048 L 709.29 233.048 L 709.29 207.815 C 704.307 207.655 699.899 206.755 696.183 205.259 C 691.896 203.533 688.509 201.014 686.186 197.916 C 683.834 194.779 682.582 191.068 682.599 187.005 C 682.61 184.077 683.269 181.259 684.353 178.551 L 692.484 159 L 692.849 158.125 L 693.791 158.125 L 727.623 158.125 L 728.565 158.125 L 728.929 159 L 737.06 178.551 C 738.146 181.131 738.805 184.202 738.815 187.005 C 738.831 191.068 737.58 194.779 735.227 197.916 C 732.904 201.014 729.518 203.534 725.231 205.259 C 721.514 206.755 717.107 207.655 712.124 207.815 L 712.124 233.048 L 729.946 233.048 L 729.946 235.883 L 729.946 235.883 Z  M 691.196 169.464 L 710.707 169.464 L 730.217 169.464 L 726.68 160.96 L 694.733 160.96 L 691.196 169.464 Z " fill-rule="evenodd" fill="rgb(255,255,255)" fill-opacity="0.25"/><path d=" M 858.473 175.958 L 840.899 175.958 L 823.326 175.958 L 833.539 192.349 C 834.352 193.648 835.438 194.822 836.74 195.643 C 838.044 196.465 839.473 196.877 840.899 196.877 C 842.325 196.877 843.754 196.465 845.059 195.643 C 846.36 194.822 847.447 193.648 848.26 192.349 L 858.473 175.958 L 858.473 175.958 Z  M 821.56 173.123 L 840.899 173.123 L 860.239 173.123 L 865.538 164.618 L 816.261 164.618 L 821.56 173.123 L 821.56 173.123 Z  M 831.136 193.844 L 812.509 163.949 L 811.16 161.784 L 813.71 161.784 L 868.088 161.784 L 870.639 161.784 L 869.29 163.949 L 850.662 193.844 C 849.623 195.507 848.227 196.986 846.564 198.034 C 845.223 198.881 843.782 199.406 842.316 199.612 L 842.316 234.319 L 859.134 234.319 L 859.134 237.153 L 822.665 237.153 L 822.665 234.319 L 839.481 234.319 L 839.481 199.612 C 838.017 199.406 836.575 198.881 835.234 198.034 C 833.597 197.002 832.149 195.49 831.136 193.844 Z " fill-rule="evenodd" fill="rgb(255,255,255)" fill-opacity="0.25"/><path d=" M 971.083 237.862 L 955.304 237.862 L 954.128 237.862 L 953.914 236.699 C 953.577 234.864 953.628 233.476 954.003 232.152 C 954.366 230.868 955.014 229.73 955.897 228.323 C 963.927 215.61 960.999 205.634 957.821 194.808 C 955.958 188.457 954.012 181.825 953.982 174.116 C 953.958 167.637 954.487 163.839 955.304 157.977 C 955.47 156.786 955.648 155.503 955.801 154.368 L 955.966 153.14 L 957.201 153.14 L 984.965 153.14 L 986.2 153.14 L 986.365 154.368 C 986.518 155.503 986.697 156.786 986.862 157.977 C 987.679 163.839 988.208 167.637 988.185 174.116 C 988.155 181.825 986.208 188.457 984.345 194.808 C 981.167 205.634 978.239 215.61 986.269 228.323 C 987.153 229.73 987.8 230.868 988.164 232.152 C 988.539 233.476 988.59 234.864 988.252 236.699 L 988.038 237.862 L 986.862 237.862 L 971.083 237.862 L 971.083 237.862 Z  M 957.308 164.479 L 984.859 164.479 C 984.647 162.569 984.376 160.623 984.061 158.364 C 983.959 157.632 983.853 156.87 983.73 155.974 L 958.435 155.974 C 958.313 156.87 958.207 157.633 958.105 158.364 C 957.79 160.623 957.519 162.569 957.308 164.479 L 957.308 164.479 Z  M 985.128 167.314 L 957.038 167.314 C 956.88 169.363 956.796 171.523 956.806 174.116 C 956.833 181.399 958.725 187.841 960.534 194.01 C 963.41 203.811 966.093 212.953 961.369 224.016 C 963.833 225.041 967.44 225.554 971.083 225.554 C 974.726 225.554 978.333 225.04 980.797 224.016 C 976.074 212.953 978.756 203.811 981.632 194.01 C 983.442 187.841 985.333 181.399 985.36 174.116 C 985.37 171.523 985.287 169.363 985.128 167.314 L 985.128 167.314 Z  M 956.539 235.027 L 971.083 235.027 L 985.627 235.027 C 985.686 234.219 985.618 233.547 985.439 232.917 C 985.171 231.968 984.628 231.023 983.877 229.829 C 983.179 228.723 982.557 227.637 982.004 226.569 C 979.146 227.782 975.097 228.388 971.083 228.388 C 967.068 228.388 963.019 227.781 960.163 226.569 C 959.61 227.637 958.988 228.723 958.289 229.829 C 957.538 231.023 956.995 231.968 956.727 232.917 C 956.548 233.547 956.48 234.219 956.539 235.027 Z " fill-rule="evenodd" fill="rgb(255,255,255)" fill-opacity="0.25"/></g></g></svg>