<?xml version="1.0" standalone="no"?><!-- Generator: Gravit.io --><svg xmlns="http://www.w3.org/2000/svg" xmlns:xlink="http://www.w3.org/1999/xlink" style="isolation:isolate" viewBox="0 0 757.755 320" width="757.755" height="320"><g/><path d=" M 163.202 319.731 L 137.685 319.731 L 124.275 292.041 L 115.101 292.041 L 115.101 319.731 L 92.808 319.731 L 92.808 237.6 L 129.532 237.6 L 129.532 237.6 Q 136.689 237.6 142.614 239.066 L 142.614 239.066 L 142.614 239.066 Q 148.54 240.533 152.763 243.701 L 152.763 243.701 L 152.763 243.701 Q 156.987 246.869 159.275 251.973 L 159.275 251.973 L 159.275 251.973 Q 161.563 257.077 161.563 264.351 L 161.563 264.351 L 161.563 264.351 Q 161.563 273.62 157.564 279.487 L 157.564 279.487 L 157.564 279.487 Q 153.565 285.353 146.742 288.404 L 146.742 288.404 L 163.202 319.731 L 163.202 319.731 Z  M 138.919 264.938 L 138.919 264.938 L 138.919 264.938 Q 138.919 261.066 136.619 258.602 L 136.619 258.602 L 136.619 258.602 Q 134.32 256.138 128.896 256.138 L 128.896 256.138 L 115.101 256.138 L 115.101 274.089 L 128.542 274.089 L 128.542 274.089 Q 134.202 274.089 136.56 271.743 L 136.56 271.743 L 136.56 271.743 Q 138.919 269.396 138.919 264.938 Z  M 200.634 319.731 L 177.403 319.731 L 177.403 237.6 L 200.634 237.6 L 200.634 319.731 L 200.634 319.731 Z  M 289.922 319.731 L 271.384 319.731 L 251.79 292.628 L 251.79 292.628 Q 250.382 290.75 248.505 287.993 L 248.505 287.993 L 248.505 287.993 Q 246.627 285.236 244.809 282.478 L 244.809 282.478 L 244.809 282.478 Q 242.99 279.721 241.406 277.257 L 241.406 277.257 L 241.406 277.257 Q 239.822 274.793 239.001 273.385 L 239.001 273.385 L 239.001 273.385 Q 239.236 274.793 239.353 277.316 L 239.353 277.316 L 239.353 277.316 Q 239.47 279.839 239.587 282.83 L 239.587 282.83 L 239.587 282.83 Q 239.705 285.822 239.705 288.99 L 239.705 288.99 L 239.705 288.99 Q 239.705 292.158 239.705 294.622 L 239.705 294.622 L 239.705 319.731 L 217.881 319.731 L 217.881 237.6 L 237.945 237.6 L 256.014 261.887 L 256.014 261.887 Q 257.422 263.764 259.358 266.58 L 259.358 266.58 L 259.358 266.58 Q 261.294 269.396 263.171 272.212 L 263.171 272.212 L 263.171 272.212 Q 265.048 275.028 266.573 277.492 L 266.573 277.492 L 266.573 277.492 Q 268.099 279.956 268.803 281.247 L 268.803 281.247 L 268.803 281.247 Q 268.568 279.839 268.451 277.316 L 268.451 277.316 L 268.451 277.316 Q 268.333 274.793 268.216 271.801 L 268.216 271.801 L 268.216 271.801 Q 268.099 268.81 268.099 265.642 L 268.099 265.642 L 268.099 265.642 Q 268.099 262.474 268.099 260.01 L 268.099 260.01 L 268.099 237.6 L 289.922 237.6 L 289.922 319.731 L 289.922 319.731 Z  M 382.378 319.731 L 355.392 319.731 L 338.262 284.766 L 329.814 294.974 L 329.814 319.731 L 306.583 319.731 L 306.583 237.6 L 329.814 237.6 L 329.814 247.221 L 329.814 247.221 Q 329.814 252.501 329.755 257.781 L 329.755 257.781 L 329.755 257.781 Q 329.697 263.06 329.462 267.519 L 329.462 267.519 L 329.462 267.519 Q 330.753 265.524 332.63 262.826 L 332.63 262.826 L 332.63 262.826 Q 334.507 260.127 336.678 257.194 L 336.678 257.194 L 336.678 257.194 Q 338.849 254.261 341.078 251.327 L 341.078 251.327 L 341.078 251.327 Q 343.307 248.394 345.302 245.93 L 345.302 245.93 L 351.872 237.6 L 379.562 237.6 L 354.805 266.58 L 382.378 319.731 L 382.378 319.731 Z  M 80.058 278.196 L 80.058 278.196 L 80.058 278.196 Q 80.058 289.812 77.242 297.731 L 77.242 297.731 L 77.242 297.731 Q 74.426 305.651 68.794 310.52 L 68.794 310.52 L 68.794 310.52 Q 63.163 315.39 54.891 317.56 L 54.891 317.56 L 54.891 317.56 Q 46.619 319.731 35.707 319.731 L 35.707 319.731 L 9.074 319.731 L 9.074 237.6 L 37.819 237.6 L 37.819 237.6 Q 47.44 237.6 55.301 239.594 L 55.301 239.594 L 55.301 239.594 Q 63.163 241.589 68.618 246.341 L 68.618 246.341 L 68.618 246.341 Q 74.074 251.093 77.066 258.837 L 77.066 258.837 L 77.066 258.837 Q 80.058 266.58 80.058 278.196 Z  M 56.709 278.548 L 56.709 278.548 L 56.709 278.548 Q 56.709 272.916 55.712 268.81 L 55.712 268.81 L 55.712 268.81 Q 54.715 264.703 52.486 262.122 L 52.486 262.122 L 52.486 262.122 Q 50.256 259.541 46.619 258.309 L 46.619 258.309 L 46.619 258.309 Q 42.982 257.077 37.702 257.077 L 37.702 257.077 L 32.07 257.077 L 32.07 300.254 L 36.998 300.254 L 36.998 300.254 Q 42.278 300.254 46.032 299.139 L 46.032 299.139 L 46.032 299.139 Q 49.787 298.025 52.192 295.502 L 52.192 295.502 L 52.192 295.502 Q 54.597 292.98 55.653 288.814 L 55.653 288.814 L 55.653 288.814 Q 56.709 284.649 56.709 278.548 Z " fill="rgb(18,60,105)"/><path d=" M 751.106 257.429 L 728.11 257.429 L 728.11 319.731 L 705.348 319.731 L 705.348 257.429 L 682.351 257.429 L 682.351 237.6 L 751.106 237.6 L 751.106 257.429 L 751.106 257.429 Z  M 670.071 319.731 L 646.839 319.731 L 646.839 287.348 L 621.261 287.348 L 621.261 319.731 L 598.03 319.731 L 598.03 237.6 L 621.261 237.6 L 621.261 267.519 L 646.839 267.519 L 646.839 237.6 L 670.071 237.6 L 670.071 319.731 L 670.071 319.731 Z  M 458.056 294.505 L 458.056 294.505 L 458.056 294.505 Q 458.056 301.545 455.533 306.59 L 455.533 306.59 L 455.533 306.59 Q 453.01 311.635 448.493 314.803 L 448.493 314.803 L 448.493 314.803 Q 443.976 317.971 437.758 319.496 L 437.758 319.496 L 437.758 319.496 Q 431.539 321.021 424.147 321.021 L 424.147 321.021 L 424.147 321.021 Q 414.174 321.021 405.081 318.147 L 405.081 318.147 L 405.081 318.147 Q 395.988 315.272 389.535 311.048 L 389.535 311.048 L 400.564 293.214 L 400.564 293.214 Q 402.793 294.739 405.785 296.206 L 405.785 296.206 L 405.785 296.206 Q 408.777 297.673 412.004 298.846 L 412.004 298.846 L 412.004 298.846 Q 415.23 300.019 418.515 300.723 L 418.515 300.723 L 418.515 300.723 Q 421.801 301.427 424.617 301.427 L 424.617 301.427 L 424.617 301.427 Q 430.718 301.427 433.006 300.254 L 433.006 300.254 L 433.006 300.254 Q 435.294 299.081 435.294 296.147 L 435.294 296.147 L 435.294 296.147 Q 435.294 294.974 434.648 294.035 L 434.648 294.035 L 434.648 294.035 Q 434.003 293.097 432.419 292.217 L 432.419 292.217 L 432.419 292.217 Q 430.835 291.337 428.137 290.457 L 428.137 290.457 L 428.137 290.457 Q 425.438 289.577 421.331 288.638 L 421.331 288.638 L 421.331 288.638 Q 413.94 286.878 408.425 284.884 L 408.425 284.884 L 408.425 284.884 Q 402.911 282.889 399.273 279.897 L 399.273 279.897 L 399.273 279.897 Q 395.636 276.905 393.818 272.681 L 393.818 272.681 L 393.818 272.681 Q 391.999 268.458 391.999 262.239 L 391.999 262.239 L 391.999 262.239 Q 391.999 256.49 394.287 251.679 L 394.287 251.679 L 394.287 251.679 Q 396.575 246.869 400.799 243.466 L 400.799 243.466 L 400.799 243.466 Q 405.023 240.064 411.006 238.186 L 411.006 238.186 L 411.006 238.186 Q 416.99 236.309 424.382 236.309 L 424.382 236.309 L 424.382 236.309 Q 434.942 236.309 442.744 238.773 L 442.744 238.773 L 442.744 238.773 Q 450.547 241.237 457.117 245.813 L 457.117 245.813 L 446.088 263.647 L 446.088 263.647 Q 440.573 259.893 435.059 257.898 L 435.059 257.898 L 435.059 257.898 Q 429.544 255.903 423.209 255.903 L 423.209 255.903 L 423.209 255.903 Q 418.046 255.903 416.404 257.311 L 416.404 257.311 L 416.404 257.311 Q 414.761 258.719 414.761 260.948 L 414.761 260.948 L 414.761 260.948 Q 414.761 262.122 415.406 263.002 L 415.406 263.002 L 415.406 263.002 Q 416.052 263.882 417.577 264.644 L 417.577 264.644 L 417.577 264.644 Q 419.102 265.407 421.683 266.17 L 421.683 266.17 L 421.683 266.17 Q 424.265 266.932 428.254 267.871 L 428.254 267.871 L 428.254 267.871 Q 435.998 269.748 441.629 271.977 L 441.629 271.977 L 441.629 271.977 Q 447.261 274.207 450.899 277.257 L 450.899 277.257 L 450.899 277.257 Q 454.536 280.308 456.296 284.532 L 456.296 284.532 L 456.296 284.532 Q 458.056 288.756 458.056 294.505 Z  M 496.188 319.731 L 472.957 319.731 L 472.957 237.6 L 496.188 237.6 L 496.188 319.731 L 496.188 319.731 Z  M 584.655 284.649 L 584.655 284.649 L 584.655 284.649 Q 584.655 302.366 575.268 311.694 L 575.268 311.694 L 575.268 311.694 Q 565.882 321.021 547.93 321.021 L 547.93 321.021 L 547.93 321.021 Q 539.483 321.021 532.501 318.205 L 532.501 318.205 L 532.501 318.205 Q 525.52 315.39 520.534 309.934 L 520.534 309.934 L 520.534 309.934 Q 515.547 304.478 512.79 296.617 L 512.79 296.617 L 512.79 296.617 Q 510.033 288.756 510.033 278.665 L 510.033 278.665 L 510.033 278.665 Q 510.033 269.514 512.497 261.77 L 512.497 261.77 L 512.497 261.77 Q 514.961 254.026 519.83 248.394 L 519.83 248.394 L 519.83 248.394 Q 524.699 242.762 531.797 239.536 L 531.797 239.536 L 531.797 239.536 Q 538.896 236.309 548.282 236.309 L 548.282 236.309 L 548.282 236.309 Q 556.026 236.309 561.541 237.717 L 561.541 237.717 L 561.541 237.717 Q 567.055 239.125 570.986 242 L 570.986 242 L 570.986 242 Q 574.916 244.874 577.673 249.215 L 577.673 249.215 L 577.673 249.215 Q 580.431 253.557 582.66 259.306 L 582.66 259.306 L 562.01 267.402 L 562.01 267.402 Q 560.015 262.122 557.023 259.13 L 557.023 259.13 L 557.023 259.13 Q 554.031 256.138 548.165 256.138 L 548.165 256.138 L 548.165 256.138 Q 544.176 256.138 541.418 257.839 L 541.418 257.839 L 541.418 257.839 Q 538.661 259.541 537.019 262.532 L 537.019 262.532 L 537.019 262.532 Q 535.376 265.524 534.613 269.631 L 534.613 269.631 L 534.613 269.631 Q 533.851 273.737 533.851 278.665 L 533.851 278.665 L 533.851 278.665 Q 533.851 290.985 537.781 296.382 L 537.781 296.382 L 537.781 296.382 Q 541.712 301.779 549.69 301.779 L 549.69 301.779 L 549.69 301.779 Q 553.327 301.779 555.791 301.017 L 555.791 301.017 L 555.791 301.017 Q 558.255 300.254 559.839 298.846 L 559.839 298.846 L 559.839 298.846 Q 561.423 297.438 562.245 295.619 L 562.245 295.619 L 562.245 295.619 Q 563.066 293.801 563.418 291.689 L 563.418 291.689 L 548.517 291.689 L 548.517 274.676 L 584.655 274.676 L 584.655 284.649 L 584.655 284.649 Z " fill="rgb(172,59,97)"/><g><path d=" M 211.378 109.008 Q 286.432 0 378.878 0 Q 471.323 0 546.378 109.008 Q 471.323 218.016 378.878 218.016 Q 286.432 218.016 211.378 109.008 Z  M 290.15 109.008 C 290.15 60.038 329.908 20.281 378.878 20.281 C 427.848 20.281 467.605 60.038 467.605 109.008 C 467.605 157.978 427.848 197.735 378.878 197.735 C 329.908 197.735 290.15 157.978 290.15 109.008 Z " fill-rule="evenodd" fill="rgb(18,60,105)"/><path d=" M 339.869 95.251 Q 328.493 118.447 328.493 131.983 C 328.493 160.578 351.07 183.792 378.878 183.792 C 406.685 183.792 429.262 160.578 429.262 131.983 Q 429.262 103.389 379.258 31.688 Q 370.408 44.187 363.102 55.377 C 369.179 59.547 373.168 66.544 373.168 74.465 C 373.168 87.234 362.801 97.6 350.033 97.6 C 346.387 97.6 342.938 96.755 339.869 95.251 Z " fill-rule="evenodd" fill="rgb(172,59,97)"/></g></svg>