<?xml version="1.0" standalone="no"?><!-- Generator: Gravit.io --><svg xmlns="http://www.w3.org/2000/svg" xmlns:xlink="http://www.w3.org/1999/xlink" style="isolation:isolate" viewBox="0 0 218.148 32" width="218.148" height="32"><g/><path d=" M 88.447 25.623 L 82.881 25.623 L 79.956 19.582 L 77.954 19.582 L 77.954 25.623 L 73.091 25.623 L 73.091 7.706 L 81.102 7.706 L 81.102 7.706 Q 82.664 7.706 83.956 8.026 L 83.956 8.026 L 83.956 8.026 Q 85.249 8.346 86.17 9.037 L 86.17 9.037 L 86.17 9.037 Q 87.092 9.728 87.591 10.841 L 87.591 10.841 L 87.591 10.841 Q 88.09 11.955 88.09 13.542 L 88.09 13.542 L 88.09 13.542 Q 88.09 15.564 87.217 16.843 L 87.217 16.843 L 87.217 16.843 Q 86.345 18.123 84.857 18.789 L 84.857 18.789 L 88.447 25.623 L 88.447 25.623 Z  M 83.15 13.67 L 83.15 13.67 L 83.15 13.67 Q 83.15 12.825 82.648 12.288 L 82.648 12.288 L 82.648 12.288 Q 82.147 11.75 80.964 11.75 L 80.964 11.75 L 77.954 11.75 L 77.954 15.666 L 80.886 15.666 L 80.886 15.666 Q 82.121 15.666 82.636 15.154 L 82.636 15.154 L 82.636 15.154 Q 83.15 14.642 83.15 13.67 Z  M 96.613 25.623 L 91.545 25.623 L 91.545 7.706 L 96.613 7.706 L 96.613 25.623 L 96.613 25.623 Z  M 116.091 25.623 L 112.047 25.623 L 107.773 19.71 L 107.773 19.71 Q 107.466 19.301 107.056 18.699 L 107.056 18.699 L 107.056 18.699 Q 106.646 18.098 106.25 17.496 L 106.25 17.496 L 106.25 17.496 Q 105.853 16.895 105.507 16.357 L 105.507 16.357 L 105.507 16.357 Q 105.162 15.82 104.983 15.513 L 104.983 15.513 L 104.983 15.513 Q 105.034 15.82 105.06 16.37 L 105.06 16.37 L 105.06 16.37 Q 105.085 16.92 105.111 17.573 L 105.111 17.573 L 105.111 17.573 Q 105.136 18.226 105.136 18.917 L 105.136 18.917 L 105.136 18.917 Q 105.136 19.608 105.136 20.145 L 105.136 20.145 L 105.136 25.623 L 100.376 25.623 L 100.376 7.706 L 104.752 7.706 L 108.694 13.004 L 108.694 13.004 Q 109.001 13.414 109.424 14.028 L 109.424 14.028 L 109.424 14.028 Q 109.846 14.642 110.255 15.257 L 110.255 15.257 L 110.255 15.257 Q 110.665 15.871 110.998 16.408 L 110.998 16.408 L 110.998 16.408 Q 111.33 16.946 111.484 17.227 L 111.484 17.227 L 111.484 17.227 Q 111.433 16.92 111.407 16.37 L 111.407 16.37 L 111.407 16.37 Q 111.382 15.82 111.356 15.167 L 111.356 15.167 L 111.356 15.167 Q 111.33 14.514 111.33 13.823 L 111.33 13.823 L 111.33 13.823 Q 111.33 13.132 111.33 12.595 L 111.33 12.595 L 111.33 7.706 L 116.091 7.706 L 116.091 25.623 L 116.091 25.623 Z  M 136.26 25.623 L 130.373 25.623 L 126.636 17.995 L 124.794 20.222 L 124.794 25.623 L 119.726 25.623 L 119.726 7.706 L 124.794 7.706 L 124.794 9.805 L 124.794 9.805 Q 124.794 10.957 124.781 12.108 L 124.781 12.108 L 124.781 12.108 Q 124.768 13.26 124.717 14.233 L 124.717 14.233 L 124.717 14.233 Q 124.998 13.798 125.408 13.209 L 125.408 13.209 L 125.408 13.209 Q 125.817 12.62 126.291 11.98 L 126.291 11.98 L 126.291 11.98 Q 126.764 11.341 127.251 10.701 L 127.251 10.701 L 127.251 10.701 Q 127.737 10.061 128.172 9.523 L 128.172 9.523 L 129.605 7.706 L 135.646 7.706 L 130.245 14.028 L 136.26 25.623 L 136.26 25.623 Z  M 70.31 16.562 L 70.31 16.562 L 70.31 16.562 Q 70.31 19.096 69.695 20.824 L 69.695 20.824 L 69.695 20.824 Q 69.081 22.551 67.853 23.613 L 67.853 23.613 L 67.853 23.613 Q 66.624 24.676 64.82 25.149 L 64.82 25.149 L 64.82 25.149 Q 63.015 25.623 60.635 25.623 L 60.635 25.623 L 54.825 25.623 L 54.825 7.706 L 61.095 7.706 L 61.095 7.706 Q 63.194 7.706 64.909 8.141 L 64.909 8.141 L 64.909 8.141 Q 66.624 8.576 67.814 9.613 L 67.814 9.613 L 67.814 9.613 Q 69.004 10.649 69.657 12.339 L 69.657 12.339 L 69.657 12.339 Q 70.31 14.028 70.31 16.562 Z  M 65.216 16.639 L 65.216 16.639 L 65.216 16.639 Q 65.216 15.41 64.999 14.514 L 64.999 14.514 L 64.999 14.514 Q 64.781 13.618 64.295 13.055 L 64.295 13.055 L 64.295 13.055 Q 63.809 12.492 63.015 12.224 L 63.015 12.224 L 63.015 12.224 Q 62.222 11.955 61.07 11.955 L 61.07 11.955 L 59.841 11.955 L 59.841 21.374 L 60.916 21.374 L 60.916 21.374 Q 62.068 21.374 62.887 21.131 L 62.887 21.131 L 62.887 21.131 Q 63.706 20.888 64.231 20.337 L 64.231 20.337 L 64.231 20.337 Q 64.756 19.787 64.986 18.878 L 64.986 18.878 L 64.986 18.878 Q 65.216 17.97 65.216 16.639 Z " fill="rgb(18,60,105)"/><path d=" M 216.698 12.032 L 211.681 12.032 L 211.681 25.623 L 206.715 25.623 L 206.715 12.032 L 201.699 12.032 L 201.699 7.706 L 216.698 7.706 L 216.698 12.032 L 216.698 12.032 Z  M 199.02 25.623 L 193.952 25.623 L 193.952 18.558 L 188.372 18.558 L 188.372 25.623 L 183.304 25.623 L 183.304 7.706 L 188.372 7.706 L 188.372 14.233 L 193.952 14.233 L 193.952 7.706 L 199.02 7.706 L 199.02 25.623 L 199.02 25.623 Z  M 152.769 20.12 L 152.769 20.12 L 152.769 20.12 Q 152.769 21.655 152.219 22.756 L 152.219 22.756 L 152.219 22.756 Q 151.669 23.857 150.683 24.548 L 150.683 24.548 L 150.683 24.548 Q 149.698 25.239 148.341 25.571 L 148.341 25.571 L 148.341 25.571 Q 146.985 25.904 145.372 25.904 L 145.372 25.904 L 145.372 25.904 Q 143.196 25.904 141.213 25.277 L 141.213 25.277 L 141.213 25.277 Q 139.229 24.65 137.821 23.729 L 137.821 23.729 L 140.227 19.838 L 140.227 19.838 Q 140.714 20.171 141.366 20.491 L 141.366 20.491 L 141.366 20.491 Q 142.019 20.811 142.723 21.067 L 142.723 21.067 L 142.723 21.067 Q 143.427 21.323 144.144 21.476 L 144.144 21.476 L 144.144 21.476 Q 144.86 21.63 145.474 21.63 L 145.474 21.63 L 145.474 21.63 Q 146.805 21.63 147.305 21.374 L 147.305 21.374 L 147.305 21.374 Q 147.804 21.118 147.804 20.478 L 147.804 20.478 L 147.804 20.478 Q 147.804 20.222 147.663 20.017 L 147.663 20.017 L 147.663 20.017 Q 147.522 19.813 147.177 19.621 L 147.177 19.621 L 147.177 19.621 Q 146.831 19.429 146.242 19.237 L 146.242 19.237 L 146.242 19.237 Q 145.654 19.045 144.758 18.84 L 144.758 18.84 L 144.758 18.84 Q 143.145 18.456 141.942 18.021 L 141.942 18.021 L 141.942 18.021 Q 140.739 17.586 139.946 16.933 L 139.946 16.933 L 139.946 16.933 Q 139.152 16.28 138.756 15.359 L 138.756 15.359 L 138.756 15.359 Q 138.359 14.438 138.359 13.081 L 138.359 13.081 L 138.359 13.081 Q 138.359 11.827 138.858 10.777 L 138.858 10.777 L 138.858 10.777 Q 139.357 9.728 140.279 8.986 L 140.279 8.986 L 140.279 8.986 Q 141.2 8.243 142.505 7.834 L 142.505 7.834 L 142.505 7.834 Q 143.811 7.424 145.423 7.424 L 145.423 7.424 L 145.423 7.424 Q 147.727 7.424 149.429 7.962 L 149.429 7.962 L 149.429 7.962 Q 151.131 8.499 152.564 9.498 L 152.564 9.498 L 150.158 13.388 L 150.158 13.388 Q 148.955 12.569 147.752 12.134 L 147.752 12.134 L 147.752 12.134 Q 146.549 11.699 145.167 11.699 L 145.167 11.699 L 145.167 11.699 Q 144.041 11.699 143.683 12.006 L 143.683 12.006 L 143.683 12.006 Q 143.324 12.313 143.324 12.799 L 143.324 12.799 L 143.324 12.799 Q 143.324 13.055 143.465 13.247 L 143.465 13.247 L 143.465 13.247 Q 143.606 13.439 143.939 13.606 L 143.939 13.606 L 143.939 13.606 Q 144.271 13.772 144.835 13.938 L 144.835 13.938 L 144.835 13.938 Q 145.398 14.105 146.268 14.31 L 146.268 14.31 L 146.268 14.31 Q 147.957 14.719 149.186 15.205 L 149.186 15.205 L 149.186 15.205 Q 150.414 15.692 151.208 16.357 L 151.208 16.357 L 151.208 16.357 Q 152.001 17.023 152.385 17.944 L 152.385 17.944 L 152.385 17.944 Q 152.769 18.866 152.769 20.12 Z  M 161.088 25.623 L 156.02 25.623 L 156.02 7.706 L 161.088 7.706 L 161.088 25.623 L 161.088 25.623 Z  M 180.386 17.97 L 180.386 17.97 L 180.386 17.97 Q 180.386 21.835 178.339 23.869 L 178.339 23.869 L 178.339 23.869 Q 176.291 25.904 172.375 25.904 L 172.375 25.904 L 172.375 25.904 Q 170.532 25.904 169.009 25.29 L 169.009 25.29 L 169.009 25.29 Q 167.486 24.676 166.399 23.485 L 166.399 23.485 L 166.399 23.485 Q 165.311 22.295 164.709 20.58 L 164.709 20.58 L 164.709 20.58 Q 164.108 18.866 164.108 16.664 L 164.108 16.664 L 164.108 16.664 Q 164.108 14.668 164.645 12.979 L 164.645 12.979 L 164.645 12.979 Q 165.183 11.289 166.245 10.061 L 166.245 10.061 L 166.245 10.061 Q 167.307 8.832 168.856 8.128 L 168.856 8.128 L 168.856 8.128 Q 170.404 7.424 172.452 7.424 L 172.452 7.424 L 172.452 7.424 Q 174.141 7.424 175.344 7.732 L 175.344 7.732 L 175.344 7.732 Q 176.547 8.039 177.405 8.666 L 177.405 8.666 L 177.405 8.666 Q 178.262 9.293 178.863 10.24 L 178.863 10.24 L 178.863 10.24 Q 179.465 11.187 179.951 12.441 L 179.951 12.441 L 175.447 14.207 L 175.447 14.207 Q 175.011 13.055 174.359 12.403 L 174.359 12.403 L 174.359 12.403 Q 173.706 11.75 172.426 11.75 L 172.426 11.75 L 172.426 11.75 Q 171.556 11.75 170.955 12.121 L 170.955 12.121 L 170.955 12.121 Q 170.353 12.492 169.995 13.145 L 169.995 13.145 L 169.995 13.145 Q 169.636 13.798 169.47 14.693 L 169.47 14.693 L 169.47 14.693 Q 169.304 15.589 169.304 16.664 L 169.304 16.664 L 169.304 16.664 Q 169.304 19.352 170.161 20.529 L 170.161 20.529 L 170.161 20.529 Q 171.019 21.707 172.759 21.707 L 172.759 21.707 L 172.759 21.707 Q 173.552 21.707 174.09 21.54 L 174.09 21.54 L 174.09 21.54 Q 174.627 21.374 174.973 21.067 L 174.973 21.067 L 174.973 21.067 Q 175.319 20.76 175.498 20.363 L 175.498 20.363 L 175.498 20.363 Q 175.677 19.966 175.754 19.505 L 175.754 19.505 L 172.503 19.505 L 172.503 15.794 L 180.386 15.794 L 180.386 17.97 L 180.386 17.97 Z " fill="rgb(172,59,97)"/><g><path d=" M 0 16 Q 11.016 0 24.585 0 Q 38.154 0 49.171 16 Q 38.154 32 24.585 32 Q 11.016 32 0 16 Z  M 11.562 16 C 11.562 8.812 17.398 2.977 24.585 2.977 C 31.773 2.977 37.609 8.812 37.609 16 C 37.609 23.188 31.773 29.023 24.585 29.023 C 17.398 29.023 11.562 23.188 11.562 16 Z " fill-rule="evenodd" fill="rgb(18,60,105)"/><path d=" M 18.86 13.981 Q 17.19 17.385 17.19 19.372 C 17.19 23.569 20.504 26.977 24.585 26.977 C 28.667 26.977 31.981 23.569 31.981 19.372 Q 31.981 15.175 24.641 4.651 Q 23.342 6.486 22.27 8.128 C 23.162 8.74 23.747 9.767 23.747 10.93 C 23.747 12.804 22.226 14.326 20.352 14.326 C 19.817 14.326 19.31 14.202 18.86 13.981 Z " fill-rule="evenodd" fill="rgb(172,59,97)"/></g></svg>