<?xml version="1.0" standalone="no"?>
<!DOCTYPE svg PUBLIC "-//W3C//DTD SVG 20010904//EN"
 "http://www.w3.org/TR/2001/REC-SVG-20010904/DTD/svg10.dtd">
<svg version="1.0" xmlns="http://www.w3.org/2000/svg"
 width="1056.000000pt" height="1056.000000pt" viewBox="0 0 1056.000000 1056.000000"
 preserveAspectRatio="xMidYMid meet">
<metadata>
Created by potrace 1.11, written by Peter Selinger 2001-2013
</metadata>
<g transform="translate(0.000000,1056.000000) scale(0.100000,-0.100000)"
fill="#000000" stroke="none">
<path d="M5147 8424 c-1 -1 -60 -5 -132 -9 -71 -3 -146 -8 -165 -10 -19 -2
-57 -7 -85 -9 -27 -3 -63 -8 -80 -11 -16 -2 -48 -7 -70 -10 -51 -8 -83 -13
-115 -20 -14 -3 -38 -8 -55 -10 -31 -6 -96 -18 -105 -20 -3 -1 -23 -5 -45 -10
-22 -5 -42 -10 -45 -10 -222 -56 -607 -183 -655 -215 -5 -3 -29 -12 -52 -20
-24 -7 -43 -17 -43 -22 0 -4 -3 -7 -7 -6 -5 0 -17 -2 -28 -7 -39 -15 -321
-155 -380 -188 -33 -19 -82 -47 -110 -62 -77 -43 -317 -196 -341 -217 -11 -10
-26 -18 -32 -18 -7 0 -12 -4 -12 -8 0 -4 -12 -15 -27 -24 -31 -18 -277 -201
-308 -229 -11 -10 -63 -53 -115 -95 -52 -43 -100 -83 -106 -89 -6 -5 -46 -41
-90 -80 -101 -89 -474 -462 -584 -584 -112 -124 -119 -132 -160 -181 -19 -23
-41 -48 -48 -55 -7 -8 -36 -43 -65 -78 -29 -35 -58 -69 -64 -77 -25 -29 -88
-108 -110 -136 -12 -16 -29 -38 -38 -49 -8 -11 -50 -65 -91 -120 -41 -55 -83
-109 -92 -120 -9 -11 -37 -50 -62 -85 -24 -36 -48 -69 -53 -75 -31 -38 -97
-137 -97 -145 0 -5 -4 -10 -9 -10 -23 0 -17 -35 14 -83 60 -91 197 -281 235
-326 8 -10 20 -25 25 -34 13 -21 152 -203 168 -219 6 -7 31 -38 54 -68 23 -30
50 -64 60 -75 10 -11 38 -45 63 -75 43 -52 83 -99 105 -124 6 -6 37 -42 70
-80 81 -94 158 -177 293 -315 61 -64 112 -119 112 -123 0 -4 9 -10 20 -13 11
-3 20 -13 20 -21 0 -8 3 -14 8 -14 4 0 39 -30 78 -67 39 -38 104 -97 144 -133
40 -36 85 -77 101 -91 15 -14 41 -36 59 -50 38 -29 65 -52 105 -87 35 -30 80
-66 175 -138 36 -26 67 -52 68 -56 2 -5 8 -8 13 -8 8 0 71 -45 122 -86 9 -8
22 -14 27 -14 6 0 10 -3 10 -8 0 -4 20 -18 45 -31 25 -13 45 -28 45 -32 0 -5
7 -9 15 -9 8 0 15 -4 15 -9 0 -5 14 -14 30 -21 17 -7 30 -15 30 -19 0 -3 23
-17 50 -30 28 -14 50 -29 50 -33 0 -4 5 -8 10 -8 6 0 29 -12 51 -26 76 -47
458 -246 479 -249 3 0 21 -8 40 -17 46 -22 233 -96 290 -115 25 -8 49 -19 54
-24 6 -5 20 -9 33 -9 13 0 31 -4 41 -10 17 -9 176 -58 262 -80 199 -52 434
-97 605 -115 196 -22 311 -27 535 -26 186 0 276 4 392 15 113 11 233 27 318
42 25 5 50 9 55 9 15 2 119 24 235 51 97 22 326 86 360 101 8 3 20 7 25 9 15
3 157 54 180 64 11 4 56 23 100 40 112 45 188 80 358 166 126 63 389 210 422
236 8 7 51 35 156 103 58 37 111 75 239 170 80 59 152 115 162 124 9 9 31 27
49 41 33 25 82 66 129 107 14 12 36 31 49 42 116 99 208 187 401 381 124 124
246 251 272 281 26 31 58 67 70 81 22 24 111 125 155 177 12 14 29 33 36 41
39 43 199 245 312 395 71 94 134 173 140 177 5 4 6 8 2 8 -4 0 1 10 13 22 11
12 20 25 20 29 0 4 6 14 13 21 34 35 147 204 142 215 -5 14 -254 365 -265 373
-3 3 -17 21 -30 40 -21 30 -77 103 -126 163 -8 9 -14 21 -14 26 0 5 -4 11 -9
13 -5 2 -37 39 -71 83 -35 44 -66 82 -69 85 -4 3 -26 30 -51 60 -25 30 -50 60
-55 66 -6 6 -27 31 -46 54 -37 45 -42 51 -169 191 -112 124 -474 487 -574 574
-43 39 -84 75 -90 80 -9 9 -181 153 -241 203 -78 64 -362 270 -423 307 -9 6
-19 13 -22 16 -18 21 -391 239 -472 277 -21 9 -38 20 -38 24 0 5 -5 8 -10 8
-11 0 -102 41 -110 49 -3 3 -9 7 -15 8 -5 1 -44 17 -85 36 -137 63 -190 87
-199 87 -8 0 -87 30 -136 51 -11 5 -49 18 -85 29 -36 12 -72 24 -80 27 -8 3
-19 7 -25 9 -5 1 -66 18 -135 37 -69 19 -141 39 -160 43 -19 4 -37 8 -40 9
-34 8 -123 27 -146 31 -16 2 -51 9 -79 14 -27 6 -68 12 -90 15 -22 3 -51 7
-65 10 -14 3 -52 8 -85 10 -33 3 -70 7 -82 9 -56 11 -556 29 -566 20z m261
-589 c59 -3 126 -6 147 -9 70 -9 119 -16 155 -23 19 -3 44 -7 55 -8 11 -1 58
-12 105 -24 47 -12 94 -24 104 -26 121 -26 377 -133 561 -235 120 -66 354
-228 363 -252 2 -4 7 -8 11 -8 16 0 171 -147 271 -256 63 -68 182 -219 189
-238 2 -6 7 -13 10 -16 12 -9 87 -124 120 -184 121 -217 213 -444 265 -656 10
-39 38 -178 42 -205 2 -16 7 -43 10 -60 25 -147 26 -530 0 -705 -12 -85 -19
-122 -31 -178 -8 -34 -17 -74 -20 -90 -4 -26 -78 -261 -92 -292 -3 -8 -7 -17
-8 -20 -1 -3 -9 -22 -18 -44 -9 -21 -17 -41 -17 -43 0 -22 -176 -343 -194
-355 -6 -4 -7 -8 -2 -8 5 0 1 -10 -10 -22 -11 -13 -33 -43 -49 -68 -17 -25
-32 -47 -35 -50 -3 -3 -18 -23 -35 -45 -106 -143 -316 -351 -470 -467 -5 -4
-23 -18 -40 -31 -106 -80 -359 -230 -437 -258 -21 -7 -38 -17 -38 -21 0 -4 -3
-7 -7 -6 -8 1 -26 -5 -78 -27 -70 -29 -241 -87 -270 -91 -5 0 -17 -4 -25 -7
-77 -29 -361 -75 -503 -81 -41 -2 -79 -6 -85 -10 -6 -3 -13 -2 -16 3 -3 5 -21
6 -40 1 -19 -4 -37 -6 -39 -3 -2 2 -52 6 -110 8 -100 4 -152 9 -216 19 -14 3
-42 7 -61 10 -45 7 -88 15 -122 22 -15 3 -30 5 -33 5 -2 0 -19 5 -37 10 -18 6
-44 12 -58 15 -13 3 -84 25 -157 49 -428 143 -824 410 -1121 754 -70 82 -152
189 -152 199 0 6 -4 12 -9 14 -27 10 -182 284 -253 448 -24 55 -79 200 -83
220 -2 8 -4 15 -5 15 -1 0 -3 7 -5 15 -3 8 -15 54 -29 103 -13 48 -22 87 -20
87 2 0 0 10 -5 23 -5 13 -12 41 -15 63 -3 21 -8 50 -11 64 -11 54 -26 185 -30
271 -2 35 -4 66 -5 69 -1 3 -2 9 -1 14 1 5 4 77 6 160 3 83 7 167 10 186 2 19
7 53 10 75 6 47 12 80 26 152 6 29 10 55 10 58 0 2 5 19 10 37 6 18 12 40 14
48 40 172 149 441 242 600 18 30 42 73 54 95 12 22 24 42 28 45 3 3 19 25 35
50 41 63 152 204 211 269 257 279 484 445 863 630 34 17 64 31 67 31 6 1 22 6
113 41 39 15 72 25 72 23 0 -3 14 2 30 11 17 9 30 13 30 11 0 -3 11 -1 25 4
14 5 36 12 48 15 12 2 49 11 82 19 33 8 77 17 99 20 21 4 41 8 45 10 6 3 70
12 156 22 22 2 91 6 153 8 63 3 116 7 119 10 3 3 10 3 15 0 5 -3 57 -7 116 -9z"/>
<path d="M5275 7485 c-11 -15 -26 -33 -32 -40 -7 -8 -13 -17 -13 -21 0 -4 -8
-17 -19 -28 -10 -12 -62 -86 -116 -166 -55 -80 -102 -146 -107 -148 -4 -2 -8
-8 -8 -13 0 -5 -34 -59 -75 -120 -41 -61 -75 -115 -75 -120 0 -4 7 -12 15 -17
57 -31 174 -177 212 -262 51 -114 68 -248 49 -380 -2 -19 -6 -36 -7 -37 -1 -2
-2 -6 -3 -10 -1 -5 -6 -22 -10 -40 -11 -45 -52 -128 -96 -193 -38 -55 -133
-150 -150 -150 -6 0 -10 -4 -10 -10 0 -5 -6 -10 -14 -10 -8 0 -16 -3 -18 -7
-4 -11 -109 -62 -136 -68 -12 -2 -26 -6 -30 -9 -20 -12 -75 -19 -172 -22 -106
-2 -166 8 -257 42 -38 15 -44 15 -58 1 -8 -9 -15 -20 -15 -24 0 -5 -11 -31
-24 -59 -44 -94 -115 -253 -115 -260 0 -2 -12 -37 -27 -77 -16 -40 -29 -75
-30 -79 -1 -5 -3 -10 -4 -13 -1 -3 -3 -8 -5 -12 -1 -5 -4 -15 -8 -23 -15 -37
-56 -204 -52 -211 3 -4 1 -10 -4 -13 -5 -3 -12 -32 -16 -63 -5 -32 -10 -67
-11 -78 -5 -29 -5 -254 0 -290 8 -56 17 -112 32 -182 40 -203 182 -485 321
-640 15 -17 35 -40 44 -50 17 -20 118 -113 164 -152 38 -32 207 -141 218 -141
5 0 23 -10 40 -22 18 -13 32 -21 32 -20 0 4 50 -14 80 -28 150 -70 477 -114
667 -88 115 15 132 18 223 43 156 42 281 101 434 202 98 65 275 236 344 333
26 36 52 70 57 77 5 7 17 28 27 47 9 20 20 36 25 36 4 0 8 4 8 10 0 5 16 42
35 81 31 64 83 200 90 239 2 8 4 15 5 15 1 0 4 11 7 25 7 39 11 55 13 55 1 0
3 9 5 20 1 11 6 38 9 60 18 108 23 252 13 355 -7 68 -9 82 -27 165 -16 72 -59
227 -77 275 -3 8 -7 20 -8 25 -2 6 -13 37 -26 70 -13 33 -24 62 -24 65 -1 3
-7 19 -15 35 -7 17 -21 48 -30 70 -55 129 -82 186 -153 330 -44 88 -88 172
-99 188 -11 15 -16 27 -13 27 3 0 -2 12 -13 28 -10 15 -34 56 -54 92 -60 110
-77 140 -182 313 -55 93 -105 176 -111 185 -5 10 -30 49 -55 87 -56 87 -67
106 -77 125 -4 8 -11 20 -15 25 -5 6 -92 136 -195 290 -102 154 -194 289 -204
301 -11 11 -19 26 -19 32 0 7 -4 12 -8 12 -5 0 -13 9 -18 21 -10 21 -10 21
-29 -6z"/>
</g>
</svg>
